<?xml version="1.0" encoding="UTF-8" standalone="no"?>
<!-- Created with Inkscape (http://www.inkscape.org/) -->

<svg
   xmlns:dc="http://purl.org/dc/elements/1.1/"
   xmlns:cc="http://creativecommons.org/ns#"
   xmlns:rdf="http://www.w3.org/1999/02/22-rdf-syntax-ns#"
   xmlns:svg="http://www.w3.org/2000/svg"
   xmlns="http://www.w3.org/2000/svg"
   xmlns:xlink="http://www.w3.org/1999/xlink"
   xmlns:sodipodi="http://sodipodi.sourceforge.net/DTD/sodipodi-0.dtd"
   xmlns:inkscape="http://www.inkscape.org/namespaces/inkscape"
   inkscape:export-ydpi="88"
   inkscape:export-xdpi="88"
   inkscape:export-filename="/Users/antoinebichat/Documents/Rencontres R 2020/Charte graphique/hexa_agroparistech.png"
   sodipodi:docname="hex_rr2020.svg"
   viewBox="0 0 1159.0125 1207.5"
   height="1207.5"
   width="1159.0125"
   xml:space="preserve"
   inkscape:version="0.92.4 (5da689c313, 2019-01-14)"
   version="1.1"
   id="svg2"><metadata
     id="metadata8"><rdf:RDF><cc:Work
         rdf:about=""><dc:format>image/svg+xml</dc:format><dc:type
           rdf:resource="http://purl.org/dc/dcmitype/StillImage" /><dc:title></dc:title></cc:Work></rdf:RDF></metadata><defs
     id="defs6"><linearGradient
   inkscape:collect="always"
   id="linearGradient1327"><stop
     style="stop-color:#ffffff;stop-opacity:1;"
     offset="0"
     id="stop1323" /><stop
     style="stop-color:#ffffff;stop-opacity:0;"
     offset="1"
     id="stop1325" /></linearGradient><linearGradient
   gradientTransform="matrix(0.39295077,0,0,-0.40097171,128.02896,788.48058)"
   id="gradientFill-2"
   x1="301.02603"
   x2="703.06751"
   y1="151.40061"
   y2="553.44209"
   gradientUnits="userSpaceOnUse"
   spreadMethod="pad"><stop
     offset="0"
     stop-color="rgb(39,109,195)"
     stop-opacity="1"
     id="stop8275" /><stop
     offset="1"
     stop-color="rgb(22,92,170)"
     stop-opacity="1"
     id="stop8277" /></linearGradient><inkscape:perspective
   sodipodi:type="inkscape:persp3d"
   inkscape:vp_x="1300.6314 : 890.27542 : 1"
   inkscape:vp_y="0 : 1000 : 0"
   inkscape:vp_z="2294.4246 : 603.75 : 1"
   inkscape:persp3d-origin="1618.4912 : 402.5 : 1"
   id="perspective4845" /><linearGradient
   spreadMethod="pad"
   gradientUnits="userSpaceOnUse"
   y2="593.78698"
   y1="3.6658269"
   x2="590.86259"
   x1="0.74144253"
   id="gradientFill-1"
   gradientTransform="matrix(0.97755384,0,0,-0.65469539,-1877.3319,636.19344)"><stop
     id="stop867"
     stop-opacity="1"
     stop-color="rgb(203,206,208)"
     offset="0" /><stop
     id="stop869"
     stop-opacity="1"
     stop-color="rgb(132,131,139)"
     offset="1" /></linearGradient><linearGradient
   spreadMethod="pad"
   gradientUnits="userSpaceOnUse"
   y2="553.44209"
   y1="151.40061"
   x2="703.06751"
   x1="301.02603"
   id="gradientFill-2-7"
   gradientTransform="matrix(0.39295077,0,0,-0.40097171,128.02896,788.48058)"><stop
     id="stop872"
     stop-opacity="1"
     stop-color="rgb(39,109,195)"
     offset="0" /><stop
     id="stop874"
     stop-opacity="1"
     stop-color="rgb(22,92,170)"
     offset="1" /></linearGradient><linearGradient
   spreadMethod="pad"
   gradientUnits="userSpaceOnUse"
   y2="553.44208"
   y1="151.4006"
   x2="703.0675"
   x1="301.02603"
   id="gradientFill-2-8"
   gradientTransform="matrix(0.79195808,0,0,-0.8081236,-1115.9603,350.29153)"><stop
     id="stop872-1"
     stop-opacity="1"
     stop-color="rgb(39,109,195)"
     offset="0" /><stop
     id="stop874-0"
     stop-opacity="1"
     stop-color="rgb(22,92,170)"
     offset="1" /></linearGradient><linearGradient
   spreadMethod="pad"
   gradientUnits="userSpaceOnUse"
   y2="553.44208"
   y1="151.4006"
   x2="703.0675"
   x1="301.02603"
   id="gradientFill-2-1"
   gradientTransform="matrix(0.39295077,0,0,-0.40097171,-1562.3685,319.36604)"><stop
     id="stop872-9"
     stop-opacity="1"
     stop-color="rgb(39,109,195)"
     offset="0" /><stop
     id="stop874-6"
     stop-opacity="1"
     stop-color="rgb(22,92,170)"
     offset="1" /></linearGradient><linearGradient
   inkscape:collect="always"
   xlink:href="#linearGradient1327"
   id="linearGradient1329"
   x1="-0.5"
   y1="20.321"
   x2="41.144"
   y2="20.321"
   gradientUnits="userSpaceOnUse" />
	

		
	
			
			
		























<inkscape:perspective
   id="perspective4845-8"
   inkscape:persp3d-origin="1618.4912 : 402.5 : 1"
   inkscape:vp_z="2294.4246 : 603.75 : 1"
   inkscape:vp_y="0 : 1000 : 0"
   inkscape:vp_x="1300.6314 : 890.27542 : 1"
   sodipodi:type="inkscape:persp3d" /></defs><sodipodi:namedview
     pagecolor="#ffffff"
     bordercolor="#666666"
     borderopacity="1"
     objecttolerance="10"
     gridtolerance="10"
     guidetolerance="10"
     inkscape:pageopacity="0"
     inkscape:pageshadow="2"
     inkscape:window-width="1440"
     inkscape:window-height="806"
     id="namedview4"
     showgrid="false"
     inkscape:zoom="0.45254834"
     inkscape:cx="624.33601"
     inkscape:cy="522.98139"
     inkscape:window-x="0"
     inkscape:window-y="1"
     inkscape:window-maximized="1"
     inkscape:current-layer="g10" /><g
     id="g10"
     inkscape:groupmode="layer"
     inkscape:label="ink_ext_XXXXXX"
     transform="matrix(1.25,0,0,-1.25,0,1207.5)">
























































































<path
   sodipodi:type="star"
   style="opacity:1;fill:#92c6eb;fill-opacity:1;fill-rule:evenodd;stroke:#4b4b4d;stroke-width:28.79999924;stroke-linecap:round;stroke-linejoin:miter;stroke-miterlimit:4;stroke-dasharray:none;stroke-dashoffset:0;stroke-opacity:1"
   id="path5953-4-5-9-9-1-6-6-1"
   sodipodi:sides="6"
   sodipodi:cx="463.60498"
   sodipodi:cy="-483"
   sodipodi:r1="481.29013"
   sodipodi:r2="416.80948"
   sodipodi:arg1="-0.52240343"
   sodipodi:arg2="0.0011953439"
   inkscape:flatsided="true"
   inkscape:rounded="0"
   inkscape:randomized="0"
   d="M 880.70182,-723.14666 880.12651,-241.85688 463.02967,-1.7102132 46.508145,-242.85334 47.083452,-724.14312 464.18029,-964.28979 Z"
   inkscape:export-xdpi="88.989998"
   inkscape:export-ydpi="88.989998"
   transform="scale(1,-1)" /><g
   id="g1281"
   transform="matrix(2.4732877,0,0,-2.4732877,192.413,585.40193)"
   style="opacity:0.75;fill:#ce3f6a;fill-opacity:1;stroke:none;stroke-opacity:1"
   inkscape:export-xdpi="88"
   inkscape:export-ydpi="88"><path
     id="path1226"
     d="M 150.82376,216.61671 137.239,219.297 c -1.35488,0.26732 -2.5,-1.119 -2.5,-2.5 0,-13.835 -11.255,-25.091 -25.09,-25.091 -13.835,0 -25.091,11.256 -25.091,25.091 0,1.381 -1.14238,2.75304 -2.5,2.5 l -15.818339,-2.94832 c -0.872966,-0.16271 -1.798343,-1.54311 -2.247343,-2.31011 -0.448,-0.767 -1.260087,-1.44597 -0.825087,-2.21997 l 2.791519,-5.0226 4.93575,-8.775 9.8715,-17.55 v -9.935 c 0,-1.381 1.119,-2.5 2.5,-2.5 h 2.232 l 9.486,-31.335 -3.637,-4.547 c -0.601,-0.75 -0.717,-1.778 -0.301,-2.645 0.417,-0.866 1.292,-1.417 2.253,-1.417 h 2.408 c 1.055,-5.604 3.976,-23.151 5.313,-51.681 1.651,-35.234 2.038,-51.247 2.041,-51.404 0,-0.019 10e-4,-0.037 0.002,-0.055 -0.974,-0.948 -1.58,-2.272 -1.58,-3.736 v -6.045 c 0,-2.875 2.339,-5.214 5.213,-5.214 h 0.452 V 2.5 c 0,-1.381 1.119,-2.5 2.5,-2.5 1.381,0 2.5,1.119 2.5,2.5 v 7.458 h 0.451 c 2.875,0 5.214,2.339 5.214,5.214 v 6.045 c 0,1.463 -0.606,2.788 -1.58,3.736 0,0.018 10e-4,0.037 0.002,0.055 0.003,0.158 0.391,16.183 2.041,51.405 1.338,28.53 4.259,46.077 5.313,51.681 h 2.408 c 0.961,0 1.837,0.551 2.253,1.417 0.416,0.866 0.299,1.895 -0.301,2.645 l -3.637,4.547 9.486,31.335 h 2.231 c 1.381,0 2.5,1.119 2.5,2.5 v 9.935 l 9.872,17.55 4.936,8.775 2.07702,5.55865 c 0.95117,2.03266 -0.008,4.16816 -4.59026,4.26006 z M 139.636,214.297 h 12.185 l -17.252,-30.671 h -49.84 l -17.252,30.671 h 12.184 c 1.274,-15.427 14.237,-27.591 29.988,-27.591 15.751,0 28.712,12.164 29.987,27.591 z M 85.767,178.626 h 47.763 v -5.59 H 85.767 Z m 36.588,-10.59 h 6.219 l -9.428,-31.146 c -0.239,-0.788 -0.074,-1.643 0.44,-2.286 l 1.209,-1.512 H 98.501 l 1.209,1.512 c 0.514,0.643 0.679,1.498 0.44,2.286 l -9.428,31.146 h 6.219 l 4.355,-23.228 c 0.222,-1.182 1.254,-2.039 2.457,-2.039 h 11.79 c 1.203,0 2.235,0.857 2.457,2.039 z m -20.327,0 h 15.24 l -3.8,-20.267 h -7.641 z m -1.229,-39.944 h 17.698 c -1.21,-6.588 -3.918,-23.779 -5.215,-51.446 -1.291,-27.542 -1.811,-43.378 -1.979,-49.08 h -3.311 c -0.168,5.702 -0.688,21.539 -1.979,49.08 -1.295,27.667 -4.004,44.858 -5.214,51.446 z m 5.898,-113.134 c -0.118,0 -0.213,0.096 -0.213,0.214 v 6.045 c 0,0.118 0.096,0.214 0.213,0.214 h 5.903 c 0.118,0 0.214,-0.096 0.214,-0.214 v -6.045 c 0,-0.118 -0.096,-0.214 -0.214,-0.214 z"
     inkscape:connector-curvature="0"
     style="fill:#4b4b4d;fill-opacity:1;stroke:none;stroke-opacity:1"
     sodipodi:nodetypes="csssssscccccssccccsccccssscssscsssccccsscccsscccccccccccscccccccccccccccccssccccccccccccccsssssssss" /><g
     id="g1228"
     style="fill:#ce3f6a;fill-opacity:1;stroke:none;stroke-opacity:1">
</g><g
     id="g1230"
     style="fill:#ce3f6a;fill-opacity:1;stroke:none;stroke-opacity:1">
</g><g
     id="g1232"
     style="fill:#ce3f6a;fill-opacity:1;stroke:none;stroke-opacity:1">
</g><g
     id="g1234"
     style="fill:#ce3f6a;fill-opacity:1;stroke:none;stroke-opacity:1">
</g><g
     id="g1236"
     style="fill:#ce3f6a;fill-opacity:1;stroke:none;stroke-opacity:1">
</g><g
     id="g1238"
     style="fill:#ce3f6a;fill-opacity:1;stroke:none;stroke-opacity:1">
</g><g
     id="g1240"
     style="fill:#ce3f6a;fill-opacity:1;stroke:none;stroke-opacity:1">
</g><g
     id="g1242"
     style="fill:#ce3f6a;fill-opacity:1;stroke:none;stroke-opacity:1">
</g><g
     id="g1244"
     style="fill:#ce3f6a;fill-opacity:1;stroke:none;stroke-opacity:1">
</g><g
     id="g1246"
     style="fill:#ce3f6a;fill-opacity:1;stroke:none;stroke-opacity:1">
</g><g
     id="g1248"
     style="fill:#ce3f6a;fill-opacity:1;stroke:none;stroke-opacity:1">
</g><g
     id="g1250"
     style="fill:#ce3f6a;fill-opacity:1;stroke:none;stroke-opacity:1">
</g><g
     id="g1252"
     style="fill:#ce3f6a;fill-opacity:1;stroke:none;stroke-opacity:1">
</g><g
     id="g1254"
     style="fill:#ce3f6a;fill-opacity:1;stroke:none;stroke-opacity:1">
</g><g
     id="g1256"
     style="fill:#ce3f6a;fill-opacity:1;stroke:none;stroke-opacity:1">
</g></g>

<flowRoot
   xml:space="preserve"
   id="flowRoot970"
   style="fill:black;fill-opacity:1;stroke:none;font-family:sans-serif;font-style:normal;font-weight:normal;font-size:40px;line-height:1.25;letter-spacing:0px;word-spacing:0px"><flowRegion
     id="flowRegion972"><rect
       id="rect974"
       width="10"
       height="44"
       x="534"
       y="365.5" /></flowRegion><flowPara
     id="flowPara976" /></flowRoot>














<g
   id="g3331"
   transform="matrix(0.8,0,0,-0.8,43.06643,446.70326)">
</g><g
   id="g3333"
   transform="matrix(0.8,0,0,-0.8,43.06643,446.70326)">
</g><g
   id="g3335"
   transform="matrix(0.8,0,0,-0.8,43.06643,446.70326)">
</g><g
   id="g3337"
   transform="matrix(0.8,0,0,-0.8,43.06643,446.70326)">
</g><g
   id="g3339"
   transform="matrix(0.8,0,0,-0.8,43.06643,446.70326)">
</g><g
   id="g3341"
   transform="matrix(0.8,0,0,-0.8,43.06643,446.70326)">
</g><g
   id="g3343"
   transform="matrix(0.8,0,0,-0.8,43.06643,446.70326)">
</g><g
   id="g3345"
   transform="matrix(0.8,0,0,-0.8,43.06643,446.70326)">
</g><g
   id="g3347"
   transform="matrix(0.8,0,0,-0.8,43.06643,446.70326)">
</g><g
   id="g3349"
   transform="matrix(0.8,0,0,-0.8,43.06643,446.70326)">
</g><g
   id="g3351"
   transform="matrix(0.8,0,0,-0.8,43.06643,446.70326)">
</g><g
   id="g3353"
   transform="matrix(0.8,0,0,-0.8,43.06643,446.70326)">
</g><g
   id="g3355"
   transform="matrix(0.8,0,0,-0.8,43.06643,446.70326)">
</g><g
   id="g3357"
   transform="matrix(0.8,0,0,-0.8,43.06643,446.70326)">
</g><g
   id="g3359"
   transform="matrix(0.8,0,0,-0.8,43.06643,446.70326)">
</g><g
   aria-label="paris2020.rencontresr.fr"
   transform="matrix(0,1,1,0,0,0)"
   style="font-style:normal;font-variant:normal;font-weight:normal;font-stretch:normal;font-size:42.66666794px;line-height:1.25;font-family:'DIN Alternate';-inkscape-font-specification:'DIN Alternate';letter-spacing:0px;word-spacing:0px;fill:#4b4b4d;fill-opacity:1;stroke:none;stroke-width:0.80000001"
   id="text1125"><path
     d="m 291.66562,840.99331 h 3.91875 v 2.025 0 q 1.95,-2.175 5.025,-2.26875 3.58125,0.0937 5.23125,2.55 0.80625,0.91875 1.10625,2.41875 0.28125,1.48125 0.28125,5.025 0,3.45 -0.28125,4.95 -0.3,1.5 -1.10625,2.45625 -0.80625,1.125 -2.11875,1.8 -1.29375,0.69375 -3.1125,0.73125 -1.5,0 -2.68125,-0.65625 -1.275,-0.6 -2.34375,-1.65 v 0 9.95625 h -3.91875 z m 7.7625,15.76875 q 1.3875,0 2.19375,-0.525 0.80625,-0.54375 1.14375,-1.3875 0.375,-0.88125 0.50625,-1.95 0.0375,-1.05 0.0375,-2.15625 0,-1.1625 -0.0375,-2.26875 -0.13125,-1.10625 -0.50625,-1.95 -0.3375,-0.88125 -1.14375,-1.3875 -0.80625,-0.46875 -2.19375,-0.46875 -1.3125,0 -2.08125,0.54375 -0.80625,0.54375 -1.18125,1.425 -0.35625,0.88125 -0.46875,1.9125 -0.1125,1.0875 -0.1125,2.19375 0,1.03125 0.1125,2.0625 0.1125,1.0875 0.46875,1.96875 0.375,0.88125 1.18125,1.425 0.76875,0.5625 2.08125,0.5625 z"
     style="font-style:normal;font-variant:normal;font-weight:normal;font-stretch:normal;font-size:38.40000153px;font-family:'DIN Alternate';-inkscape-font-specification:'DIN Alternate';fill:#4b4b4d;fill-opacity:1;stroke-width:0.80000001"
     id="path5056" /><path
     d="m 321.83437,858.73081 h -0.075 q -0.54375,0.99375 -1.6875,1.4625 -1.125,0.4875 -3.1125,0.4875 -3.2625,-0.0375 -5.025,-1.725 -1.85625,-1.65 -1.85625,-4.21875 0,-2.45625 1.6125,-4.06875 1.6125,-1.65 4.725,-1.6875 h 5.41875 v -2.04375 q 0.0375,-2.56875 -3.99375,-2.49375 -1.4625,0 -2.30625,0.3 -0.88125,0.35625 -1.3875,1.2 v 0 l -3.075,-2.34375 q 2.23125,-2.925 6.58125,-2.85 3.675,-0.0375 5.86875,1.3875 2.19375,1.4625 2.23125,5.025 v 13.29375 h -3.91875 z m 0,-6.525 h -4.6875 q -3.4125,0.075 -3.375,2.34375 0,0.99375 0.88125,1.6875 0.84375,0.76875 2.79375,0.76875 2.45625,0.0375 3.46875,-0.58125 0.91875,-0.61875 0.91875,-2.8125 z"
     style="font-style:normal;font-variant:normal;font-weight:normal;font-stretch:normal;font-size:38.40000153px;font-family:'DIN Alternate';-inkscape-font-specification:'DIN Alternate';fill:#4b4b4d;fill-opacity:1;stroke-width:0.80000001"
     id="path5058" /><path
     d="m 330.81562,840.99331 h 3.91875 v 2.0625 h 0.075 q 1.93125,-2.30625 5.0625,-2.30625 2.34375,0.0375 4.0875,1.5 l -2.85,3.39375 v 0 q -1.2375,-0.975 -2.56875,-0.975 -1.5,0 -2.56875,0.975 -1.2,0.95625 -1.2375,3.09375 v 11.71875 h -3.91875 z"
     style="font-style:normal;font-variant:normal;font-weight:normal;font-stretch:normal;font-size:38.40000153px;font-family:'DIN Alternate';-inkscape-font-specification:'DIN Alternate';fill:#4b4b4d;fill-opacity:1;stroke-width:0.80000001"
     id="path5060" /><path
     d="m 345.85312,840.99331 h 3.91875 v 19.4625 h -3.91875 z m 0,-7.875 h 3.91875 v 3.91875 h -3.91875 z"
     style="font-style:normal;font-variant:normal;font-weight:normal;font-stretch:normal;font-size:38.40000153px;font-family:'DIN Alternate';-inkscape-font-specification:'DIN Alternate';fill:#4b4b4d;fill-opacity:1;stroke-width:0.80000001"
     id="path5062" /><path
     d="m 355.54687,854.51206 q 2.38125,2.49375 6.15,2.49375 1.6875,0 2.75625,-0.65625 1.06875,-0.65625 1.06875,-1.8375 0,-1.05 -0.6375,-1.4625 -0.65625,-0.43125 -1.74375,-0.46875 l -3.45,-0.3 q -2.45625,-0.225 -3.99375,-1.65 -1.575,-1.3875 -1.6125,-3.88125 0.0375,-3 2.11875,-4.5 2.025,-1.5 5.1375,-1.5 1.35,0 2.41875,0.16875 1.06875,0.1875 2.00625,0.525 1.8,0.73125 3.225,1.96875 l -2.41875,2.83125 v 0 q -1.125,-0.80625 -2.38125,-1.33125 -1.2375,-0.46875 -2.85,-0.46875 -1.8375,0 -2.56875,0.65625 -0.76875,0.65625 -0.76875,1.6875 -0.0375,0.65625 0.58125,1.14375 0.5625,0.54375 1.9875,0.69375 l 3.225,0.24375 q 3.0375,0.225 4.3875,1.8375 1.25625,1.575 1.25625,3.99375 -0.0375,2.83125 -2.30625,4.36875 -2.25,1.575 -5.75625,1.6125 -4.7625,0 -8.56875,-3.4875 l 2.7375,-2.68125 z"
     style="font-style:normal;font-variant:normal;font-weight:normal;font-stretch:normal;font-size:38.40000153px;font-family:'DIN Alternate';-inkscape-font-specification:'DIN Alternate';fill:#4b4b4d;fill-opacity:1;stroke-width:0.80000001"
     id="path5064" /><path
     d="m 372.12187,856.76206 10.66875,-13.35 q 0.61875,-0.80625 0.84375,-1.5 0.15,-0.65625 0.15,-1.2375 0,-1.5375 -0.95625,-2.68125 -0.99375,-1.14375 -2.8125,-1.18125 -1.6125,0 -2.68125,1.03125 -1.10625,1.03125 -1.3125,2.90625 h -3.9 q 0.15,-3.4125 2.2875,-5.64375 2.15625,-2.175 5.30625,-2.2125 3.525,0.0375 5.71875,2.25 2.23125,2.19375 2.26875,5.56875 0,2.7 -1.65,4.8 l -8.79375,11.025 h 10.44375 v 3.91875 h -15.58125 z"
     style="font-style:normal;font-variant:normal;font-weight:normal;font-stretch:normal;font-size:38.40000153px;font-family:'DIN Alternate';-inkscape-font-specification:'DIN Alternate';fill:#4b4b4d;fill-opacity:1;stroke-width:0.80000001"
     id="path5066" /><path
     d="m 402.38437,840.99331 q -0.1125,-4.10625 -3.84375,-4.18125 -3.75,0.075 -3.825,4.18125 v 11.5875 q 0.075,4.14375 3.825,4.18125 3.73125,-0.0375 3.84375,-4.18125 z m -11.5875,-0.24375 q 0.0375,-3.7875 2.41875,-5.83125 2.23125,-2.025 5.325,-2.025 3.1875,0 5.41875,2.025 2.26875,2.04375 2.34375,5.83125 v 12.05625 q -0.075,3.76875 -2.34375,5.8125 -2.23125,2.025 -5.41875,2.0625 -3.09375,-0.0375 -5.325,-2.0625 -2.38125,-2.04375 -2.41875,-5.8125 z"
     style="font-style:normal;font-variant:normal;font-weight:normal;font-stretch:normal;font-size:38.40000153px;font-family:'DIN Alternate';-inkscape-font-specification:'DIN Alternate';fill:#4b4b4d;fill-opacity:1;stroke-width:0.80000001"
     id="path5068" /><path
     d="m 409.02187,856.76206 10.66875,-13.35 q 0.61875,-0.80625 0.84375,-1.5 0.15,-0.65625 0.15,-1.2375 0,-1.5375 -0.95625,-2.68125 -0.99375,-1.14375 -2.8125,-1.18125 -1.6125,0 -2.68125,1.03125 -1.10625,1.03125 -1.3125,2.90625 h -3.9 q 0.15,-3.4125 2.2875,-5.64375 2.15625,-2.175 5.30625,-2.2125 3.525,0.0375 5.71875,2.25 2.23125,2.19375 2.26875,5.56875 0,2.7 -1.65,4.8 l -8.79375,11.025 h 10.44375 v 3.91875 h -15.58125 z"
     style="font-style:normal;font-variant:normal;font-weight:normal;font-stretch:normal;font-size:38.40000153px;font-family:'DIN Alternate';-inkscape-font-specification:'DIN Alternate';fill:#4b4b4d;fill-opacity:1;stroke-width:0.80000001"
     id="path5070" /><path
     d="m 439.28438,840.99331 q -0.1125,-4.10625 -3.84375,-4.18125 -3.75,0.075 -3.825,4.18125 v 11.5875 q 0.075,4.14375 3.825,4.18125 3.73125,-0.0375 3.84375,-4.18125 z m -11.5875,-0.24375 q 0.0375,-3.7875 2.41875,-5.83125 2.23125,-2.025 5.325,-2.025 3.1875,0 5.41875,2.025 2.26875,2.04375 2.34375,5.83125 v 12.05625 q -0.075,3.76875 -2.34375,5.8125 -2.23125,2.025 -5.41875,2.0625 -3.09375,-0.0375 -5.325,-2.0625 -2.38125,-2.04375 -2.41875,-5.8125 z"
     style="font-style:normal;font-variant:normal;font-weight:normal;font-stretch:normal;font-size:38.40000153px;font-family:'DIN Alternate';-inkscape-font-specification:'DIN Alternate';fill:#4b4b4d;fill-opacity:1;stroke-width:0.80000001"
     id="path5072" /><path
     d="m 447.32812,856.53706 h 3.91875 v 3.91875 h -3.91875 z"
     style="font-style:normal;font-variant:normal;font-weight:normal;font-stretch:normal;font-size:38.40000153px;font-family:'DIN Alternate';-inkscape-font-specification:'DIN Alternate';fill:#4b4b4d;fill-opacity:1;stroke-width:0.80000001"
     id="path5074" /><path
     d="m 456.44063,840.99331 h 3.91875 v 2.0625 h 0.075 q 1.93125,-2.30625 5.0625,-2.30625 2.34375,0.0375 4.0875,1.5 l -2.85,3.39375 v 0 q -1.2375,-0.975 -2.56875,-0.975 -1.5,0 -2.56875,0.975 -1.2,0.95625 -1.2375,3.09375 v 11.71875 h -3.91875 z"
     style="font-style:normal;font-variant:normal;font-weight:normal;font-stretch:normal;font-size:38.40000153px;font-family:'DIN Alternate';-inkscape-font-specification:'DIN Alternate';fill:#4b4b4d;fill-opacity:1;stroke-width:0.80000001"
     id="path5076" /><path
     d="m 473.65313,852.20581 q 0,2.34375 1.35,3.5625 1.25625,1.2375 3.3,1.2375 2.38125,0 4.25625,-1.89375 v 0 l 2.83125,2.41875 q -2.98125,3.1875 -7.0125,3.15 -1.5375,0 -3,-0.45 -0.73125,-0.24375 -1.425,-0.65625 -0.73125,-0.35625 -1.36875,-0.88125 -1.2375,-1.0875 -2.00625,-3.0375 -0.84375,-1.875 -0.84375,-4.875 0,-2.8875 0.73125,-4.8 0.73125,-1.95 1.875,-3.075 1.1625,-1.14375 2.60625,-1.65 1.425,-0.50625 2.8125,-0.50625 3.3375,0.0375 5.64375,2.19375 2.34375,2.19375 2.38125,6.0375 v 3.225 z m 8.2125,-3.225 q -0.075,-2.26875 -1.21875,-3.43125 -1.125,-1.10625 -2.8875,-1.10625 -1.7625,0 -2.8875,1.10625 -1.10625,1.1625 -1.21875,3.43125 z"
     style="font-style:normal;font-variant:normal;font-weight:normal;font-stretch:normal;font-size:38.40000153px;font-family:'DIN Alternate';-inkscape-font-specification:'DIN Alternate';fill:#4b4b4d;fill-opacity:1;stroke-width:0.80000001"
     id="path5078" /><path
     d="m 489.89063,840.99331 h 3.91875 v 2.0625 h 0.075 q 1.93125,-2.30625 5.0625,-2.30625 2.41875,0 4.425,1.70625 1.9875,1.725 2.08125,5.0625 v 12.9375 h -3.91875 v -11.5875 q 0,-2.04375 -1.0875,-3.1125 -1.06875,-1.0875 -2.75625,-1.0875 -1.6875,0 -2.775,1.0875 -1.10625,1.06875 -1.10625,3.1125 v 11.5875 h -3.91875 z"
     style="font-style:normal;font-variant:normal;font-weight:normal;font-stretch:normal;font-size:38.40000153px;font-family:'DIN Alternate';-inkscape-font-specification:'DIN Alternate';fill:#4b4b4d;fill-opacity:1;stroke-width:0.80000001"
     id="path5080" /><path
     d="m 524.84063,857.30581 q -1.275,1.4625 -3,2.38125 -1.725,0.95625 -3.99375,0.99375 -3.45,0 -6.05625,-2.34375 -2.7,-2.34375 -2.775,-7.59375 0.075,-5.30625 2.775,-7.6875 2.60625,-2.34375 6.05625,-2.30625 2.26875,0.0375 3.99375,0.9375 1.725,0.91875 3,2.45625 l -2.8875,2.56875 v 0 q -1.48125,-1.96875 -3.95625,-2.04375 -4.9875,-0.075 -5.0625,6.075 0.075,6.1125 5.0625,6.01875 2.475,-0.0375 3.95625,-2.025 v 0 z"
     style="font-style:normal;font-variant:normal;font-weight:normal;font-stretch:normal;font-size:38.40000153px;font-family:'DIN Alternate';-inkscape-font-specification:'DIN Alternate';fill:#4b4b4d;fill-opacity:1;stroke-width:0.80000001"
     id="path5082" /><path
     d="m 526.58438,850.70581 q 0,-3.075 0.50625,-4.725 0.525,-1.6125 1.6125,-2.71875 0.80625,-0.975 2.25,-1.74375 1.425,-0.73125 3.65625,-0.76875 2.30625,0.0375 3.73125,0.76875 1.40625,0.76875 2.175,1.74375 1.1625,1.10625 1.65,2.71875 0.46875,1.65 0.46875,4.725 0,3.075 -0.46875,4.6875 -0.4875,1.6125 -1.65,2.79375 -0.375,0.43125 -0.91875,0.84375 -0.4875,0.46875 -1.25625,0.80625 -1.425,0.80625 -3.73125,0.84375 -2.23125,-0.0375 -3.65625,-0.84375 -1.44375,-0.73125 -2.25,-1.65 -1.0875,-1.18125 -1.6125,-2.79375 -0.50625,-1.6125 -0.50625,-4.6875 z m 12.13125,0.0375 q 0,-2.08125 -0.1875,-3.0375 -0.1875,-0.91875 -0.76875,-1.6125 -0.43125,-0.65625 -1.275,-1.03125 -0.80625,-0.39375 -1.875,-0.39375 -0.99375,0 -1.8375,0.39375 -0.80625,0.375 -1.3125,1.03125 -0.50625,0.69375 -0.73125,1.6125 -0.225,0.95625 -0.225,3 0,2.025 0.225,2.9625 0.225,0.95625 0.73125,1.6875 0.50625,0.5625 1.3125,0.99375 0.84375,0.4125 1.8375,0.4125 1.06875,0 1.875,-0.4125 0.84375,-0.43125 1.275,-0.99375 0.58125,-0.73125 0.76875,-1.6875 0.1875,-0.9375 0.1875,-2.925 z"
     style="font-style:normal;font-variant:normal;font-weight:normal;font-stretch:normal;font-size:38.40000153px;font-family:'DIN Alternate';-inkscape-font-specification:'DIN Alternate';fill:#4b4b4d;fill-opacity:1;stroke-width:0.80000001"
     id="path5084" /><path
     d="m 546.74063,840.99331 h 3.91875 v 2.0625 h 0.075 q 1.93125,-2.30625 5.0625,-2.30625 2.41875,0 4.425,1.70625 1.9875,1.725 2.08125,5.0625 v 12.9375 h -3.91875 v -11.5875 q 0,-2.04375 -1.0875,-3.1125 -1.06875,-1.0875 -2.75625,-1.0875 -1.6875,0 -2.775,1.0875 -1.10625,1.06875 -1.10625,3.1125 v 11.5875 h -3.91875 z"
     style="font-style:normal;font-variant:normal;font-weight:normal;font-stretch:normal;font-size:38.40000153px;font-family:'DIN Alternate';-inkscape-font-specification:'DIN Alternate';fill:#4b4b4d;fill-opacity:1;stroke-width:0.80000001"
     id="path5086" /><path
     d="m 567.59063,835.06831 h 3.91875 v 5.925 h 2.85 v 2.98125 h -2.85 v 11.34375 q -0.0375,1.48125 1.3875,1.44375 h 1.4625 v 3.69375 h -2.04375 q -2.0625,0 -3.375,-1.275 -1.35,-1.21875 -1.35,-3.525 v -11.68125 h -1.95 v -2.98125 h 1.95 z"
     style="font-style:normal;font-variant:normal;font-weight:normal;font-stretch:normal;font-size:38.40000153px;font-family:'DIN Alternate';-inkscape-font-specification:'DIN Alternate';fill:#4b4b4d;fill-opacity:1;stroke-width:0.80000001"
     id="path5088" /><path
     d="m 578.01563,840.99331 h 3.91875 v 2.0625 h 0.075 q 1.93125,-2.30625 5.0625,-2.30625 2.34375,0.0375 4.0875,1.5 l -2.85,3.39375 v 0 q -1.2375,-0.975 -2.56875,-0.975 -1.5,0 -2.56875,0.975 -1.2,0.95625 -1.2375,3.09375 v 11.71875 h -3.91875 z"
     style="font-style:normal;font-variant:normal;font-weight:normal;font-stretch:normal;font-size:38.40000153px;font-family:'DIN Alternate';-inkscape-font-specification:'DIN Alternate';fill:#4b4b4d;fill-opacity:1;stroke-width:0.80000001"
     id="path5090" /><path
     d="m 595.22813,852.20581 q 0,2.34375 1.35,3.5625 1.25625,1.2375 3.3,1.2375 2.38125,0 4.25625,-1.89375 v 0 l 2.83125,2.41875 q -2.98125,3.1875 -7.0125,3.15 -1.5375,0 -3,-0.45 -0.73125,-0.24375 -1.425,-0.65625 -0.73125,-0.35625 -1.36875,-0.88125 -1.2375,-1.0875 -2.00625,-3.0375 -0.84375,-1.875 -0.84375,-4.875 0,-2.8875 0.73125,-4.8 0.73125,-1.95 1.875,-3.075 1.1625,-1.14375 2.60625,-1.65 1.425,-0.50625 2.8125,-0.50625 3.3375,0.0375 5.64375,2.19375 2.34375,2.19375 2.38125,6.0375 v 3.225 z m 8.2125,-3.225 q -0.075,-2.26875 -1.21875,-3.43125 -1.125,-1.10625 -2.8875,-1.10625 -1.7625,0 -2.8875,1.10625 -1.10625,1.1625 -1.21875,3.43125 z"
     style="font-style:normal;font-variant:normal;font-weight:normal;font-stretch:normal;font-size:38.40000153px;font-family:'DIN Alternate';-inkscape-font-specification:'DIN Alternate';fill:#4b4b4d;fill-opacity:1;stroke-width:0.80000001"
     id="path5092" /><path
     d="m 612.04689,854.51206 q 2.38125,2.49375 6.15,2.49375 1.6875,0 2.75625,-0.65625 1.06875,-0.65625 1.06875,-1.8375 0,-1.05 -0.6375,-1.4625 -0.65625,-0.43125 -1.74375,-0.46875 l -3.45,-0.3 q -2.45625,-0.225 -3.99375,-1.65 -1.575,-1.3875 -1.6125,-3.88125 0.0375,-3 2.11875,-4.5 2.025,-1.5 5.1375,-1.5 1.35,0 2.41875,0.16875 1.06875,0.1875 2.00625,0.525 1.8,0.73125 3.225,1.96875 l -2.41875,2.83125 v 0 q -1.125,-0.80625 -2.38125,-1.33125 -1.2375,-0.46875 -2.85,-0.46875 -1.8375,0 -2.56875,0.65625 -0.76875,0.65625 -0.76875,1.6875 -0.0375,0.65625 0.58125,1.14375 0.5625,0.54375 1.9875,0.69375 l 3.225,0.24375 q 3.0375,0.225 4.3875,1.8375 1.25625,1.575 1.25625,3.99375 -0.0375,2.83125 -2.30625,4.36875 -2.25,1.575 -5.75625,1.6125 -4.7625,0 -8.56875,-3.4875 l 2.7375,-2.68125 z"
     style="font-style:normal;font-variant:normal;font-weight:normal;font-stretch:normal;font-size:38.40000153px;font-family:'DIN Alternate';-inkscape-font-specification:'DIN Alternate';fill:#4b4b4d;fill-opacity:1;stroke-width:0.80000001"
     id="path5094" /><path
     d="m 629.91562,840.99331 h 3.91875 v 2.0625 h 0.075 q 1.93125,-2.30625 5.0625,-2.30625 2.34375,0.0375 4.0875,1.5 l -2.85,3.39375 v 0 q -1.2375,-0.975 -2.56875,-0.975 -1.5,0 -2.56875,0.975 -1.2,0.95625 -1.2375,3.09375 v 11.71875 h -3.91875 z"
     style="font-style:normal;font-variant:normal;font-weight:normal;font-stretch:normal;font-size:38.40000153px;font-family:'DIN Alternate';-inkscape-font-specification:'DIN Alternate';fill:#4b4b4d;fill-opacity:1;stroke-width:0.80000001"
     id="path5096" /><path
     d="m 641.42814,856.53706 h 3.91875 v 3.91875 h -3.91875 z"
     style="font-style:normal;font-variant:normal;font-weight:normal;font-stretch:normal;font-size:38.40000153px;font-family:'DIN Alternate';-inkscape-font-specification:'DIN Alternate';fill:#4b4b4d;fill-opacity:1;stroke-width:0.80000001"
     id="path5098" /><path
     d="m 651.15937,843.97456 h -1.96875 v -2.98125 h 1.96875 v -2.56875 q 0,-2.775 1.5375,-4.0875 1.5,-1.21875 3.76875,-1.21875 h 2.53125 v 3.69375 h -2.23125 q -1.7625,-0.0562 -1.6875,1.6125 v 2.56875 h 3.91875 v 2.98125 h -3.91875 v 16.48125 h -3.91875 z"
     style="font-style:normal;font-variant:normal;font-weight:normal;font-stretch:normal;font-size:38.40000153px;font-family:'DIN Alternate';-inkscape-font-specification:'DIN Alternate';fill:#4b4b4d;fill-opacity:1;stroke-width:0.80000001"
     id="path5100" /><path
     d="m 661.19064,840.99331 h 3.91875 v 2.0625 h 0.075 q 1.93125,-2.30625 5.0625,-2.30625 2.34375,0.0375 4.0875,1.5 l -2.85,3.39375 v 0 q -1.2375,-0.975 -2.56875,-0.975 -1.5,0 -2.56875,0.975 -1.2,0.95625 -1.2375,3.09375 v 11.71875 h -3.91875 z"
     style="font-style:normal;font-variant:normal;font-weight:normal;font-stretch:normal;font-size:38.40000153px;font-family:'DIN Alternate';-inkscape-font-specification:'DIN Alternate';fill:#4b4b4d;fill-opacity:1;stroke-width:0.80000001"
     id="path5102" /></g>







<g
   id="g75395"
   transform="translate(37.768673,33.793023)"
   inkscape:export-xdpi="88"
   inkscape:export-ydpi="88"><path
     style="fill:#4b4b4d;fill-opacity:1;stroke-width:0.18970127"
     inkscape:connector-curvature="0"
     d="m 511.28117,707.69262 c -5.17941,7.57041 -11.52473,11.75066 -18.85971,12.42467 -11.81327,1.0849 -22.54695,-7.28054 -26.2723,-10.57319 -7.61556,7.14453 -15.55475,10.52937 -23.61667,10.06574 -12.89229,-0.74192 -21.21771,-11.06262 -21.56581,-11.50159 -0.65029,-0.82008 -0.51276,-2.01045 0.30618,-2.66208 0.81894,-0.65162 2.01197,-0.51541 2.66454,0.30239 0.0753,0.0943 7.66564,9.44959 18.84663,10.07522 7.38925,0.41222 14.79082,-3.03047 21.99587,-10.23552 0.35588,-0.35588 0.83829,-0.55563 1.34137,-0.55563 7.6e-4,0 0.001,0 0.002,0 0.50366,5.7e-4 0.98664,0.20146 1.34214,0.55848 0.11875,0.11913 12.01245,11.90432 24.6088,10.74809 6.156,-0.56569 11.56476,-4.19562 16.07567,-10.78888 0.36745,-0.53723 0.96216,-0.82615 1.56731,-0.82615 0.36897,0 0.74192,0.10737 1.06953,0.33141 0.86466,0.59168 1.08604,1.77219 0.49436,2.63704 z"
     id="path1397" /><path
     style="fill:#4b4b4d;fill-opacity:1;stroke-width:0.18970127"
     inkscape:connector-curvature="0"
     d="m 473.1845,803.70199 c 0.0624,-0.008 6.34077,-0.84587 13.98744,-3.79459 6.96089,-2.68408 16.53037,-7.72407 22.58811,-16.49092 0.36062,-0.52225 0.94907,-0.81875 1.56086,-0.81875 0.18515,0 0.37238,0.0271 0.55601,0.0835 0.79049,0.24244 1.33284,0.9688 1.34081,1.79552 7.6e-4,0.0795 0.10984,8.02854 3.06481,16.30406 3.85322,10.79021 10.50035,16.91472 19.75701,18.20317 1.03767,0.14436 1.76176,1.10273 1.61721,2.1404 -0.14456,1.03786 -1.10293,1.76232 -2.1404,1.61739 -10.61588,-1.47758 -18.50233,-8.63046 -22.80703,-20.68502 -1.68758,-4.72603 -2.5088,-9.29688 -2.90812,-12.58915 -5.22779,5.82478 -12.51668,10.62081 -21.35865,14.01627 -8.05605,3.09365 -14.50286,3.94654 -14.77337,3.98126 -1.03672,0.13336 -1.98845,-0.59984 -2.12257,-1.63845 -0.13412,-1.039 0.59946,-1.98978 1.63788,-2.12466 z"
     id="path1399" /><path
     sodipodi:nodetypes="cccccsccssccsccscc"
     id="path1967"
     d="m 581.25043,730.29409 c 4.52386,4.81211 9.50155,7.08305 14.7948,6.74976 8.52492,-0.53721 15.23452,-7.67835 17.52009,-10.43376 6.20989,4.23915 12.23342,5.76756 17.9178,4.54433 9.09014,-1.9565 13.86969,-10.22186 14.0687,-10.57275 0.3718,-0.65551 0.14203,-1.48718 -0.51282,-1.86004 -0.65485,-0.37285 -1.48856,-0.14374 -1.86222,0.51041 -0.0431,0.0754 -4.40666,7.57249 -12.29219,9.25662 -5.21149,1.11211 -10.85891,-0.51704 -16.78345,-4.84474 -0.29264,-0.21376 -0.65798,-0.30242 -1.01591,-0.24667 l -0.002,1.9e-4 c -0.35827,0.0562 -0.67962,0.25267 -0.893,0.54607 -0.0279,0.0383 -1.13946,1.54579 -3.02663,3.40169 -2.93798,2.88934 -7.75576,6.62313 -13.29056,6.97217 -4.44244,0.27971 -8.69282,-1.70348 -12.63279,-5.89447 -0.32096,-0.3415 -0.77609,-0.48115 -1.20663,-0.41409 -0.26251,0.0409 -0.51595,0.15861 -0.72421,0.3543 -0.5496,0.51678 -0.57629,1.3812 -0.0595,1.93094 z"
     inkscape:connector-curvature="0"
     style="fill:#4b4b4d;fill-opacity:1;stroke-width:0.13659258" /><g
     transform="matrix(0.18970127,0,0,-0.18970127,416.84708,798.39492)"
     id="g1407"
     style="fill:#4b4b4d;fill-opacity:1">
</g><g
     transform="matrix(0.18970127,0,0,-0.18970127,416.84708,798.39492)"
     id="g1409"
     style="fill:#4b4b4d;fill-opacity:1">
</g><g
     transform="matrix(0.18970127,0,0,-0.18970127,416.84708,798.39492)"
     id="g1411"
     style="fill:#4b4b4d;fill-opacity:1">
</g><g
     transform="matrix(0.18970127,0,0,-0.18970127,416.84708,798.39492)"
     id="g1413"
     style="fill:#4b4b4d;fill-opacity:1">
</g><g
     transform="matrix(0.18970127,0,0,-0.18970127,416.84708,798.39492)"
     id="g1415"
     style="fill:#4b4b4d;fill-opacity:1">
</g><g
     transform="matrix(0.18970127,0,0,-0.18970127,416.84708,798.39492)"
     id="g1417"
     style="fill:#4b4b4d;fill-opacity:1">
</g><g
     transform="matrix(0.18970127,0,0,-0.18970127,416.84708,798.39492)"
     id="g1419"
     style="fill:#4b4b4d;fill-opacity:1">
</g><g
     transform="matrix(0.18970127,0,0,-0.18970127,416.84708,798.39492)"
     id="g1421"
     style="fill:#4b4b4d;fill-opacity:1">
</g><g
     transform="matrix(0.18970127,0,0,-0.18970127,416.84708,798.39492)"
     id="g1423"
     style="fill:#4b4b4d;fill-opacity:1">
</g><g
     transform="matrix(0.18970127,0,0,-0.18970127,416.84708,798.39492)"
     id="g1425"
     style="fill:#4b4b4d;fill-opacity:1">
</g><g
     transform="matrix(0.18970127,0,0,-0.18970127,416.84708,798.39492)"
     id="g1427"
     style="fill:#4b4b4d;fill-opacity:1">
</g><g
     transform="matrix(0.18970127,0,0,-0.18970127,416.84708,798.39492)"
     id="g1429"
     style="fill:#4b4b4d;fill-opacity:1">
</g><g
     transform="matrix(0.18970127,0,0,-0.18970127,416.84708,798.39492)"
     id="g1431"
     style="fill:#4b4b4d;fill-opacity:1">
</g><g
     transform="matrix(0.18970127,0,0,-0.18970127,416.84708,798.39492)"
     id="g1433"
     style="fill:#4b4b4d;fill-opacity:1">
</g><g
     transform="matrix(0.18970127,0,0,-0.18970127,416.84708,798.39492)"
     id="g1435"
     style="fill:#4b4b4d;fill-opacity:1">
</g></g><g
   id="g1958"
   transform="rotate(2.6493728,336.42085,783.42019)"
   inkscape:export-xdpi="88"
   inkscape:export-ydpi="88"
   style="fill:#f7f4d3;fill-opacity:1"><g
     inkscape:export-ydpi="88"
     inkscape:export-xdpi="88"
     style="fill:#f7f4d3;fill-opacity:1"
     transform="matrix(0.68963463,0.40546772,-0.40546772,0.68963463,257.00232,591.4318)"
     id="g1926"><g
       style="fill:#f7f4d3;fill-opacity:1"
       id="g1842">
	<g
   style="fill:#f7f4d3;fill-opacity:1"
   id="g1840">
		<path
   style="fill:#f7f4d3;fill-opacity:1"
   sodipodi:nodetypes="ccccccccccccccccccsccccscccccccccccccccccccccccccccsccccsccsccsss"
   inkscape:connector-curvature="0"
   d="m 402.39,263.60281 c -0.796,-3.095 -0.153,-7.78381 1.965,-11.61481 l 18.471,-33.39 c 1.041,-1.881 1.242,-4.113 0.554,-6.15 -0.687,-2.037 -2.2,-3.69 -4.168,-4.555 L 384.28,192.534 c -5.261,-2.314 -8.73,-7.521 -8.834,-13.268 l -0.699,-38.152 c -0.04,-2.149 -0.981,-4.182 -2.596,-5.603 -1.613,-1.42 -3.748,-2.099 -5.887,-1.86 l -37.931,4.164 c -5.717,0.625 -11.321,-2.15 -14.285,-7.074 L 294.369,98.05 c -1.109,-1.842 -2.941,-3.132 -5.048,-3.554 -2.109,-0.422 -4.297,0.061 -6.029,1.333 l -30.767,22.572 c -4.634,3.399 -10.878,3.799 -15.909,1.017 l -33.39,-18.471 c -1.883,-1.041 -4.113,-1.241 -6.15,-0.554 -2.037,0.687 -3.69,2.201 -4.555,4.168 l -15.36,34.932 c -2.313,5.261 -7.52,8.729 -13.268,8.835 l -38.152,0.699 c -2.149,0.04 -4.182,0.981 -5.602,2.594 -1.42,1.613 -2.096,3.751 -1.86,5.888 l 4.165,37.93 c 0.627,5.714 -2.149,11.321 -7.075,14.286 l -32.691,19.681 c -1.834,1.104 -3.122,2.925 -3.549,5.022 -0.428,2.097 0.042,4.277 1.296,6.012 l 15.472,21.407 0.122938,2.34375 C 142.11403,264.83675 357.261,263.60281 402.39,263.60281 Z M 123.261,222.83 c 10.018,-6.031 15.666,-17.438 14.39,-29.062 l -3.251,-29.601 29.775,-0.546 c 11.692,-0.214 22.287,-7.268 26.991,-17.973 l 11.986,-27.26 26.058,14.416 c 10.231,5.658 22.934,4.847 32.363,-2.069 l 24.011,-17.615 15.359,25.513 c 6.031,10.018 17.444,15.672 29.062,14.389 l 29.601,-3.25 0.545,29.774 c 0.214,11.69 7.269,22.287 17.973,26.992 l 27.26,11.986 -14.416,26.058 c -3.321,6.003 -4.675,11.663 -4.1,17.262 h -14.282 c -3.994,-61.833 -55.56,-110.918 -118.385,-110.918 -62.825,0 -114.391,49.086 -118.387,110.919 h -21.04 L 97.698,238.22 Z m 130.941,-35.157 c -42.552,0 -77.615,32.625 -81.524,74.172 h -21.535 c 3.965,-53.391 48.673,-95.62 103.059,-95.62 54.386,0 99.094,42.229 103.059,95.62 H 188.062 c 3.844,-33.095 32.029,-58.875 66.139,-58.875 4.225,0 7.649,-3.425 7.649,-7.649 0,-4.224 -3.424,-7.648 -7.648,-7.648 z"
   id="path1838" />
	</g>
</g><g
       style="fill:#f7f4d3;fill-opacity:1"
       id="g1848">
	<g
   style="fill:#f7f4d3;fill-opacity:1"
   id="g1846">
		
	</g>
</g><g
       style="fill:#f7f4d3;fill-opacity:1"
       id="g1854">
	<g
   style="fill:#f7f4d3;fill-opacity:1"
   id="g1852">
		
	</g>
</g><g
       style="fill:#f7f4d3;fill-opacity:1"
       id="g1860">
	<g
   style="fill:#f7f4d3;fill-opacity:1"
   id="g1858">
		
	</g>
</g><g
       style="fill:#f7f4d3;fill-opacity:1"
       id="g1862">
</g><g
       style="fill:#f7f4d3;fill-opacity:1"
       id="g1864">
</g><g
       style="fill:#f7f4d3;fill-opacity:1"
       id="g1866">
</g><g
       style="fill:#f7f4d3;fill-opacity:1"
       id="g1868">
</g><g
       style="fill:#f7f4d3;fill-opacity:1"
       id="g1870">
</g><g
       style="fill:#f7f4d3;fill-opacity:1"
       id="g1872">
</g><g
       style="fill:#f7f4d3;fill-opacity:1"
       id="g1874">
</g><g
       style="fill:#f7f4d3;fill-opacity:1"
       id="g1876">
</g><g
       style="fill:#f7f4d3;fill-opacity:1"
       id="g1878">
</g><g
       style="fill:#f7f4d3;fill-opacity:1"
       id="g1880">
</g><g
       style="fill:#f7f4d3;fill-opacity:1"
       id="g1882">
</g><g
       style="fill:#f7f4d3;fill-opacity:1"
       id="g1884">
</g><g
       style="fill:#f7f4d3;fill-opacity:1"
       id="g1886">
</g><g
       style="fill:#f7f4d3;fill-opacity:1"
       id="g1888">
</g><g
       style="fill:#f7f4d3;fill-opacity:1"
       id="g1890">
</g></g><path
     transform="matrix(0.8929201,0.45021517,0.45021517,-0.8929201,0,0)"
     style="opacity:1;fill:#f7f4d3;fill-opacity:1;stroke:none;stroke-width:3.88061738;stroke-linecap:round;stroke-linejoin:round;stroke-miterlimit:4;stroke-dasharray:none;stroke-dashoffset:0;stroke-opacity:1;paint-order:stroke fill markers"
     d="m 770.41789,-641.79095 a 86.841965,85.396393 0 0 1 -43.42098,73.95544 86.841965,85.396393 0 0 1 -86.84197,0 86.841965,85.396393 0 0 1 -43.42098,-73.95545"
     id="path1928"
     inkscape:connector-curvature="0" /></g>



<g
   id="g5123"><path
     inkscape:export-ydpi="88"
     inkscape:export-xdpi="88"
     id="path881-3"
     d="m 247.46707,545.42463 c 0,0 13.56242,-4.09258 21.44181,-8.07951 2.73399,-1.38348 7.46424,-4.14418 10.87629,-7.76879 3.34244,-3.55002 4.97201,-7.14727 4.97201,-7.14727 l 53.44917,-90.11776 -86.38875,-0.0385 -40.39763,75.86176 c 0,0 -8.27218,14.21313 -13.36229,18.33431 -4.24609,3.43755 -6.05652,4.66128 -10.25478,4.66128 -2.9223,0 -20.52572,0 -20.52572,0 l 0.0163,-98.80264 -76.444727,-0.0323 V 684.67966 H 244.35969 c 0,0 69.91896,-1.26103 69.91896,-67.78224 0,-66.52121 -66.81144,-71.47272 -66.81144,-71.47272 z m -33.25034,84.50933 -46.27889,0.0299 -0.0233,-42.91471 46.30189,0.0157 c 0,0 21.4418,0.0665 21.4418,21.83024 0,22.20129 -21.4418,21.0397 -21.4418,21.0397 z"
     inkscape:connector-curvature="0"
     style="fill:#ffffff;fill-opacity:1;fill-rule:evenodd;stroke:#ce3f6a;stroke-width:2.18910241;stroke-miterlimit:4;stroke-dasharray:none;stroke-opacity:1" /><g
     id="text8282"
     style="font-style:normal;font-variant:normal;font-weight:normal;font-stretch:normal;font-size:51.23567963px;line-height:1.25;font-family:Krungthep;-inkscape-font-specification:Krungthep;letter-spacing:0px;word-spacing:0px;fill:#ce3f6a;fill-opacity:1;stroke:#ffffff;stroke-width:2.18910241;stroke-miterlimit:4;stroke-dasharray:none;stroke-opacity:1"
     transform="scale(1,-1)"
     aria-label="encontres"><path
       id="path5027"
       style="font-style:normal;font-variant:normal;font-weight:normal;font-stretch:normal;font-size:122.96565247px;font-family:'DIN Alternate';-inkscape-font-specification:'DIN Alternate';fill:#ce3f6a;fill-opacity:1;stroke:#ffffff;stroke-width:2.18910241;stroke-miterlimit:4;stroke-dasharray:none;stroke-opacity:1"
       d="m 339.54617,-629.80121 q 0,7.50522 4.32301,11.40794 4.02281,3.96276 10.56736,3.96276 7.62532,0 13.6295,-6.06422 v 0 l 9.06631,7.74539 q -9.54665,10.20711 -22.45564,10.08703 -4.92343,0 -9.60669,-1.441 -2.34163,-0.78055 -4.56318,-2.10147 -2.34163,-1.14079 -4.38305,-2.82196 -3.96276,-3.48243 -6.42448,-9.72678 -2.70188,-6.00418 -2.70188,-15.61087 0,-9.24644 2.34163,-15.37071 2.34163,-6.24435 6.00418,-9.84686 3.7226,-3.66255 8.34582,-5.28368 4.56318,-1.62113 9.00627,-1.62113 10.68745,0.12009 18.07259,7.0249 7.50523,7.02489 7.62531,19.33346 v 10.3272 z m 26.29832,-10.3272 q -0.24017,-7.26506 -3.90272,-10.98765 -3.60251,-3.54247 -9.24644,-3.54247 -5.64393,0 -9.24644,3.54247 -3.54247,3.72259 -3.90272,10.98765 z" /><path
       id="path5029"
       style="font-style:normal;font-variant:normal;font-weight:normal;font-stretch:normal;font-size:122.96565247px;font-family:'DIN Alternate';-inkscape-font-specification:'DIN Alternate';fill:#ce3f6a;fill-opacity:1;stroke:#ffffff;stroke-width:2.18910241;stroke-miterlimit:4;stroke-dasharray:none;stroke-opacity:1"
       d="m 391.54239,-665.70622 h 12.54874 v 6.6046 h 0.24017 q 6.18431,-7.38515 16.21129,-7.38515 7.7454,0 14.16987,5.46381 6.36443,5.52385 6.66464,16.21129 v 41.42886 h -12.54874 v -37.10585 q 0,-6.54456 -3.48242,-9.96694 -3.42239,-3.48243 -8.82615,-3.48243 -5.40377,0 -8.88619,3.48243 -3.54247,3.42238 -3.54247,9.96694 v 37.10585 h -12.54874 z" /><path
       id="path5031"
       style="font-style:normal;font-variant:normal;font-weight:normal;font-stretch:normal;font-size:122.96565247px;font-family:'DIN Alternate';-inkscape-font-specification:'DIN Alternate';fill:#ce3f6a;fill-opacity:1;stroke:#ffffff;stroke-width:2.18910241;stroke-miterlimit:4;stroke-dasharray:none;stroke-opacity:1"
       d="m 503.46035,-613.46984 q -4.08285,4.68326 -9.60669,7.62531 -5.52385,3.06214 -12.78891,3.18222 -11.0477,0 -19.39351,-7.50523 -8.64602,-7.50523 -8.88619,-24.31694 0.24017,-16.99183 8.88619,-24.61714 8.34581,-7.50523 19.39351,-7.38515 7.26506,0.12009 12.78891,3.00209 5.52384,2.94205 9.60669,7.86548 l -9.24644,8.22573 v 0 q -4.74331,-6.30439 -12.66883,-6.54456 -15.97112,-0.24016 -16.21129,19.45355 0.24017,19.57364 16.21129,19.27343 7.92552,-0.12009 12.66883,-6.48452 v 0 z" /><path
       id="path5033"
       style="font-style:normal;font-variant:normal;font-weight:normal;font-stretch:normal;font-size:122.96565247px;font-family:'DIN Alternate';-inkscape-font-specification:'DIN Alternate';fill:#ce3f6a;fill-opacity:1;stroke:#ffffff;stroke-width:2.18910241;stroke-miterlimit:4;stroke-dasharray:none;stroke-opacity:1"
       d="m 509.04425,-634.60456 q 0,-9.84686 1.62112,-15.13054 1.68118,-5.1636 5.1636,-8.70606 2.5818,-3.12218 7.20502,-5.58389 4.56318,-2.34163 11.70816,-2.46172 7.38514,0.12009 11.94832,2.46172 4.50313,2.46171 6.96485,5.58389 3.72259,3.54246 5.28368,8.70606 1.50105,5.28368 1.50105,15.13054 0,9.84686 -1.50105,15.01046 -1.56109,5.16359 -5.28368,8.94623 -1.20084,1.38096 -2.94205,2.70188 -1.56109,1.50104 -4.0228,2.5818 -4.56318,2.5818 -11.94832,2.70188 -7.14498,-0.12008 -11.70816,-2.70188 -4.62322,-2.34163 -7.20502,-5.28368 -3.48242,-3.78264 -5.1636,-8.94623 -1.62112,-5.1636 -1.62112,-15.01046 z m 38.84705,0.12008 q 0,-6.66464 -0.60041,-9.72677 -0.60042,-2.94205 -2.46172,-5.1636 -1.38096,-2.10146 -4.08284,-3.3023 -2.5818,-1.26088 -6.00418,-1.26088 -3.18222,0 -5.8841,1.26088 -2.5818,1.20084 -4.20293,3.3023 -1.62113,2.22155 -2.34163,5.1636 -0.7205,3.06213 -0.7205,9.60669 0,6.48452 0.7205,9.48661 0.7205,3.06213 2.34163,5.40376 1.62113,1.80126 4.20293,3.18222 2.70188,1.32092 5.8841,1.32092 3.42238,0 6.00418,-1.32092 2.70188,-1.38096 4.08284,-3.18222 1.8613,-2.34163 2.46172,-5.40376 0.60041,-3.00209 0.60041,-9.36653 z" /><path
       id="path5035"
       style="font-style:normal;font-variant:normal;font-weight:normal;font-stretch:normal;font-size:122.96565247px;font-family:'DIN Alternate';-inkscape-font-specification:'DIN Alternate';fill:#ce3f6a;fill-opacity:1;stroke:#ffffff;stroke-width:2.18910241;stroke-miterlimit:4;stroke-dasharray:none;stroke-opacity:1"
       d="m 573.5892,-665.70622 h 12.54874 v 6.6046 h 0.24017 q 6.1843,-7.38515 16.21129,-7.38515 7.74539,0 14.16987,5.46381 6.36443,5.52385 6.66464,16.21129 v 41.42886 h -12.54874 v -37.10585 q 0,-6.54456 -3.48243,-9.96694 -3.42238,-3.48243 -8.82614,-3.48243 -5.40377,0 -8.88619,3.48243 -3.54247,3.42238 -3.54247,9.96694 v 37.10585 H 573.5892 Z" /><path
       id="path5037"
       style="font-style:normal;font-variant:normal;font-weight:normal;font-stretch:normal;font-size:122.96565247px;font-family:'DIN Alternate';-inkscape-font-specification:'DIN Alternate';fill:#ce3f6a;fill-opacity:1;stroke:#ffffff;stroke-width:2.18910241;stroke-miterlimit:4;stroke-dasharray:none;stroke-opacity:1"
       d="m 640.35569,-684.67944 h 12.54874 v 18.97322 h 9.12636 v 9.54665 h -9.12636 v 36.3253 q -0.12008,4.7433 4.44309,4.62322 h 4.68327 v 11.82824 h -6.54456 q -6.6046,0 -10.80753,-4.08285 -4.32301,-3.90271 -4.32301,-11.28786 v -37.40605 h -6.24435 v -9.54665 h 6.24435 z" /><path
       id="path5039"
       style="font-style:normal;font-variant:normal;font-weight:normal;font-stretch:normal;font-size:122.96565247px;font-family:'DIN Alternate';-inkscape-font-specification:'DIN Alternate';fill:#ce3f6a;fill-opacity:1;stroke:#ffffff;stroke-width:2.18910241;stroke-miterlimit:4;stroke-dasharray:none;stroke-opacity:1"
       d="m 673.73895,-665.70622 h 12.54874 v 6.6046 h 0.24017 q 6.1843,-7.38515 16.21129,-7.38515 7.50522,0.12009 13.08911,4.80335 l -9.12635,10.86757 v 0 q -3.96276,-3.12218 -8.22573,-3.12218 -4.80335,0 -8.22573,3.12218 -3.84268,3.06213 -3.96276,9.9069 v 37.52614 h -12.54874 z" /><path
       id="path5041"
       style="font-style:normal;font-variant:normal;font-weight:normal;font-stretch:normal;font-size:122.96565247px;font-family:'DIN Alternate';-inkscape-font-specification:'DIN Alternate';fill:#ce3f6a;fill-opacity:1;stroke:#ffffff;stroke-width:2.18910241;stroke-miterlimit:4;stroke-dasharray:none;stroke-opacity:1"
       d="m 728.85736,-629.80121 q 0,7.50522 4.32301,11.40794 4.0228,3.96276 10.56736,3.96276 7.62531,0 13.6295,-6.06422 v 0 l 9.06631,7.74539 q -9.54665,10.20711 -22.45564,10.08703 -4.92343,0 -9.60669,-1.441 -2.34163,-0.78055 -4.56318,-2.10147 -2.34163,-1.14079 -4.38305,-2.82196 -3.96276,-3.48243 -6.42448,-9.72678 -2.70188,-6.00418 -2.70188,-15.61087 0,-9.24644 2.34163,-15.37071 2.34163,-6.24435 6.00418,-9.84686 3.7226,-3.66255 8.34582,-5.28368 4.56317,-1.62113 9.00627,-1.62113 10.68744,0.12009 18.07259,7.0249 7.50523,7.02489 7.62531,19.33346 v 10.3272 z m 26.29832,-10.3272 q -0.24017,-7.26506 -3.90272,-10.98765 -3.60251,-3.54247 -9.24644,-3.54247 -5.64393,0 -9.24644,3.54247 -3.54247,3.72259 -3.90272,10.98765 z" /><path
       id="path5043"
       style="font-style:normal;font-variant:normal;font-weight:normal;font-stretch:normal;font-size:122.96565247px;font-family:'DIN Alternate';-inkscape-font-specification:'DIN Alternate';fill:#ce3f6a;fill-opacity:1;stroke:#ffffff;stroke-width:2.18910241;stroke-miterlimit:4;stroke-dasharray:none;stroke-opacity:1"
       d="m 782.71487,-622.41607 q 7.62531,7.98556 19.69372,7.98556 5.40376,0 8.82614,-2.10146 3.42239,-2.10147 3.42239,-5.8841 0,-3.36234 -2.04143,-4.68326 -2.10146,-1.38096 -5.58388,-1.50105 l -11.0477,-0.96067 q -7.86548,-0.7205 -12.78891,-5.28368 -5.04351,-4.44309 -5.16359,-12.42865 0.12008,-9.6067 6.78472,-14.41004 6.48452,-4.80335 16.45146,-4.80335 4.32301,0 7.7454,0.54038 3.42238,0.60042 6.42447,1.68117 5.76402,2.34163 10.32719,6.30439 l -7.74539,9.06632 v 0 q -3.60251,-2.5818 -7.62531,-4.26297 -3.96276,-1.50105 -9.12636,-1.50105 -5.8841,0 -8.22573,2.10146 -2.46171,2.10147 -2.46171,5.40377 -0.12009,2.10146 1.86129,3.66255 1.80126,1.74121 6.36444,2.22155 l 10.32719,0.78054 q 9.72677,0.7205 14.04979,5.8841 4.0228,5.04351 4.0228,12.78891 -0.12009,9.06631 -7.38515,13.98974 -7.20502,5.04352 -18.43284,5.1636 -15.25062,0 -27.43911,-11.16778 l 8.76611,-8.58598 z" /></g><path
     inkscape:export-ydpi="88"
     inkscape:export-xdpi="88"
     style="fill:#ce3f6a;fill-opacity:1;fill-rule:evenodd;stroke:#ffffff;stroke-width:2.18910241;stroke-miterlimit:4;stroke-dasharray:none;stroke-opacity:1"
     inkscape:connector-curvature="0"
     d="m 362.66707,419.02463 c 0,0 13.56242,-4.09258 21.44181,-8.07951 2.73399,-1.38348 7.46424,-4.14418 10.87629,-7.76879 3.34244,-3.55002 4.97201,-7.14727 4.97201,-7.14727 l 53.44917,-90.11776 -86.38875,-0.0385 -40.39763,75.86176 c 0,0 -8.27218,14.21313 -13.36229,18.33431 -4.24609,3.43755 -6.05652,4.66128 -10.25478,4.66128 -2.9223,0 -20.52572,0 -20.52572,0 l 0.0163,-98.80264 -76.44473,-0.0323 v 252.38445 h 153.51094 c 0,0 69.91896,-1.26103 69.91896,-67.78224 0,-66.52121 -66.81144,-71.47272 -66.81144,-71.47272 z m -33.25034,84.50933 -46.27889,0.0299 -0.0233,-42.91471 46.30189,0.0157 c 0,0 21.4418,0.0665 21.4418,21.83024 0,22.20129 -21.4418,21.0397 -21.4418,21.0397 z"
     id="path75452" /><g
     id="text75456"
     style="font-style:normal;font-variant:normal;font-weight:normal;font-stretch:normal;font-size:87.54138184px;line-height:1.25;font-family:Krungthep;-inkscape-font-specification:Krungthep;letter-spacing:0px;word-spacing:0px;fill:#ffffff;fill-opacity:1;stroke:#ce3f6a;stroke-width:2.1885345;stroke-opacity:1"
     transform="scale(1,-1)"
     aria-label="20"><path
       id="path5046"
       style="font-style:normal;font-variant:normal;font-weight:normal;font-stretch:normal;font-size:210.09933472px;font-family:'DIN Alternate';-inkscape-font-specification:'DIN Alternate';fill:#ffffff;fill-opacity:1;stroke:#ce3f6a;stroke-width:2.1885345;stroke-opacity:1"
       d="m 497.78872,-453.71369 58.37233,-73.04234 q 3.38539,-4.41127 4.61644,-8.20701 0.8207,-3.59056 0.8207,-6.77078 0,-8.41218 -5.23197,-14.67002 -5.43714,-6.25784 -15.38813,-6.46302 -8.82253,0 -14.67002,5.64232 -6.05267,5.64232 -7.18113,15.90107 h -21.33822 q 0.8207,-18.67094 12.51569,-30.87886 11.79757,-11.90015 29.03228,-12.10533 19.28646,0.20518 31.28921,12.31051 12.20792,12.00274 12.41309,30.46851 0,14.77261 -9.0277,26.26241 l -48.11357,60.32149 h 57.14127 v 21.4408 h -85.25027 z" /><path
       id="path5048"
       style="font-style:normal;font-variant:normal;font-weight:normal;font-stretch:normal;font-size:210.09933472px;font-family:'DIN Alternate';-inkscape-font-specification:'DIN Alternate';fill:#ffffff;fill-opacity:1;stroke:#ce3f6a;stroke-width:2.1885345;stroke-opacity:1"
       d="m 663.36506,-539.98983 q -0.61553,-22.46668 -21.03045,-22.87703 -20.51752,0.41035 -20.92787,22.87703 v 63.39912 q 0.41035,22.67185 20.92787,22.87702 20.41492,-0.20517 21.03045,-22.87702 z m -63.39912,-1.33364 q 0.20518,-20.72269 13.2338,-31.90473 12.20792,-11.07946 29.13487,-11.07946 17.43988,0 29.6478,11.07946 12.4131,11.18204 12.82345,31.90473 v 65.96381 q -0.41035,20.6201 -12.82345,31.80214 -12.20792,11.07946 -29.6478,11.28463 -16.92695,-0.20517 -29.13487,-11.28463 -13.02862,-11.18204 -13.2338,-31.80214 z" /></g><g
     id="text75460"
     style="font-style:normal;font-variant:normal;font-weight:normal;font-stretch:normal;font-size:87.54138184px;line-height:1.25;font-family:Krungthep;-inkscape-font-specification:Krungthep;letter-spacing:0px;word-spacing:0px;fill:#ce3f6a;fill-opacity:1;stroke:#ffffff;stroke-width:2.1885345;stroke-opacity:1"
     transform="scale(1,-1)"
     aria-label="20"><path
       id="path5051"
       style="font-style:normal;font-variant:normal;font-weight:normal;font-stretch:normal;font-size:210.09933472px;font-family:'DIN Alternate';-inkscape-font-specification:'DIN Alternate';fill:#ce3f6a;fill-opacity:1;stroke:#ffffff;stroke-width:2.1885345;stroke-opacity:1"
       d="m 628.98861,-380.11341 58.37233,-73.04234 q 3.38539,-4.41127 4.61644,-8.20701 0.8207,-3.59056 0.8207,-6.77078 0,-8.41218 -5.23197,-14.67002 -5.43714,-6.25784 -15.38813,-6.46302 -8.82253,0 -14.67002,5.64232 -6.05267,5.64232 -7.18113,15.90107 h -21.33822 q 0.8207,-18.67093 12.51569,-30.87885 11.79757,-11.90016 29.03228,-12.10534 19.28646,0.20518 31.28921,12.31051 12.20792,12.00275 12.41309,30.46851 0,14.77261 -9.0277,26.26241 l -48.11357,60.32149 h 57.14127 v 21.4408 h -85.25027 z" /><path
       id="path5053"
       style="font-style:normal;font-variant:normal;font-weight:normal;font-stretch:normal;font-size:210.09933472px;font-family:'DIN Alternate';-inkscape-font-specification:'DIN Alternate';fill:#ce3f6a;fill-opacity:1;stroke:#ffffff;stroke-width:2.1885345;stroke-opacity:1"
       d="m 794.56495,-466.38955 q -0.61553,-22.46668 -21.03045,-22.87703 -20.51752,0.41035 -20.92787,22.87703 v 63.39912 q 0.41035,22.67185 20.92787,22.87702 20.41492,-0.20517 21.03045,-22.87702 z m -63.39912,-1.33364 q 0.20518,-20.72269 13.2338,-31.90473 12.20792,-11.07946 29.13487,-11.07946 17.43988,0 29.6478,11.07946 12.4131,11.18204 12.82345,31.90473 v 65.96381 q -0.41035,20.6201 -12.82345,31.80214 -12.20792,11.07946 -29.6478,11.28463 -16.92695,-0.20517 -29.13487,-11.28463 -13.02862,-11.18204 -13.2338,-31.80214 z" /></g></g>



<path
   style="fill:#4b4b4d;fill-opacity:1;stroke-width:0.80000001"
   inkscape:connector-curvature="0"
   d="m 83.9172,348.41015 c -0.16,-0.24 -0.16,-0.24 0,0 z"
   id="path102350"
   inkscape:export-xdpi="88"
   inkscape:export-ydpi="88" /><g
   id="g4908"><g
     inkscape:export-ydpi="88"
     inkscape:export-xdpi="88"
     style="fill:#f7f4d3;fill-opacity:1;stroke:none"
     transform="matrix(0.03493693,0,0,0.03493693,702.40608,-16.760761)"
     id="g113063"><path
       sodipodi:nodetypes="ccccscccscccccscccccccsccsccccccccscccccccccccc"
       style="fill:#f7f4d3;fill-opacity:1"
       inkscape:connector-curvature="0"
       d="m 4160.4775,6474.1722 57.5988,75.9491 C 4212.2539,6699.74 4581.6735,6644.6903 4279,6782 l -49,20 v 127 c 0,69 5,236 10,371 34,885 33,1133 -2,1208 -11,22 -21,28 -56,30 -39,3 -42,2 -42,-23 0,-27 -33.7006,-1244.3308 -59.7006,-1878.3308 C 3913.2016,6881.6789 2420.3905,5230.0359 2460,5900 c 47,238 102,399 300,895 61,154 203,469 220,488 9,11 202,-87 385,-196 87,-53 161,-95 163,-93 5,5 -312,528 -382,631 -72,105 -146,187 -209,233 l -45,32 -71,-177 c -96,-245 -118,-303 -241,-663 -180,-524 -216,-615 -270,-676 -37,-43 -37,-65 -5,276 14,146 25,292 25,325 0,54 -53,616 -95,1012 -24,223 -63,501 -80,568 -16,60 -35,85 -66,85 -18,0 -18,12 -39,-780 -15,-544 -36,-843 -63,-899 -7,-14 -23,-28 -36,-31 l -23,-5 -2,-273 c 0,-167 -5,-272 -11,-273 -5,0 -22,46 -38,103 -58,212 -251,548 -404,704 -43,44 -147,124 -160,124 -5,0 -42,-82 -82,-182 C 978,6503 897,6318 574,5627 344,5136 256,4942 215,4835 c -13,-33 -33,-84 -44,-113 -12,-29 -17,-50 -11,-47 21,13 96,135 507,820 533,889 610,1010 732,1145 l 41,45 31,-35 c 126,-142 173,-232 254,-490 73.7783,-788.1788 -663.8146,-777.858 -1053,-1535 37.05657,-66.3596 2462.1921,1283.3826 3488.4775,1849.1722 z"
       id="path113061" /></g><g
     inkscape:export-ydpi="88"
     inkscape:export-xdpi="88"
     id="g113067"
     transform="matrix(0.03493693,0,0,0.03493693,510.82838,-77.166713)"
     style="fill:#f7f4d3;fill-opacity:1;stroke:none"><path
       sodipodi:nodetypes="cccccsccsccsccccccccccccccscccscccscsscccccccccccccscccccccsccsccccccccscccccccccccccsccccccccccccccccccsccccccccccc"
       id="path113065"
       d="m 7261,12773 c -18,-35 -84,-234 -236,-713 -337,-1061 -574,-1849 -671,-2224 l -38,-148 -52,111 c -70,148 -104,191 -151,191 -47,0 -163,-56 -363,-175 -91,-54 -166,-98 -167,-99 -3,-2 -89,-496 -86,-496 2,0 28,20 58,44 29,25 85,62 122,84 70,41 285,142 302,142 5,0 22,-15 37,-32 l 27,-33 -6,-150 c -10,-245 -63,-696 -239,-2047 -29,-224 -56,-404 -59,-400 -10,11 -143,485 -213,761 l -62,243 -41,-48 c -22,-27 -47,-63 -56,-80 -45,-87 -162,-467 -367,-1184 -385.731,-924.7614 -765.3542,-1358.5561 -780.2994,-802.5598 -8,722 21.2994,479.5598 48.2994,636.5598 l 7,38 153,-147 c 111,-107 152,-141 152,-127 0,118 -57,324 -129,469 -57,112 -103,165 -172,195 l -49,20 v 127 c 0,69 5,236 10,371 34,885 33,1133 -2,1208 -11,22 -21,28 -56,30 -39,3 -42,2 -42,-23 0,-27 -59,-1491 -85,-2125 -8,-195 -15,-368 -15,-383 0,-23 -3,-27 -19,-22 -32,10 -92,-102 -321,-600 -74,-159 -137,-294 -140,-298 -7,-8 -39,78 -163,443 l -63,185 -29,-3 c -19,-2 -41,-15 -58,-35 193.4634,-743.9801 -829.648,-1525.5649 -863,-882 -9,512 9,770 76,1105 47,238 102,399 300,895 61,154 203,469 220,488 9,11 202,-87 385,-196 87,-53 161,-95 163,-93 5,5 -312,528 -382,631 -72,105 -146,187 -209,233 l -45,32 -71,-177 c -96,-245 -118,-303 -241,-663 -180,-524 -216,-615 -270,-676 -37,-43 -37,-65 -5,276 14,146 25,292 25,325 0,54 -53,616 -95,1012 -24,223 -63,501 -80,568 -16,60 -35,85 -66,85 -18,0 -18,12 -39,-780 -15,-544 -36,-843 -63,-899 -7,-14 -23,-28 -36,-31 l -23,-5 -2,-273 c 0,-167 -5,-272 -11,-273 -5,0 -22,46 -38,103 -58,212 -251,548 -404,704 -43,44 -147,124 -160,124 -5,0 -42,-82 -82,-182 C 978,6503 897,6318 574,5627 344,5136 256,4942 215,4835 c -13,-33 -33,-84 -44,-113 -12,-29 -17,-50 -11,-47 21,13 96,135 507,820 533,889 610,1010 732,1145 l 41,45 31,-35 c 126,-142 173,-232 254,-490 112,-355 180,-713 270,-1430 14,-113 28,-214 31,-225 41,-140 -310,577 -556,1138 -24,53 -48,97 -54,97 -7,0 -40,-9 -73,-21 -72,-24 -97,-51 -202,-216 C 1038,5339 904,5088 672,4625 385,4050 150,3546 95,3385 65,3295 9,3108 12,3104 c 2,-1 64,111 137,249 767,1441 861,1609 969,1739 l 56,66 22,-31 c 39,-60 286,-519 354,-661 270,-560 118.3308,122.9252 458.9746,-558.5269 C 4038.5479,5080.7202 5471.727,5777.8786 6155.5299,6354 5720.1566,6066.8109 6007.6584,6963.1843 6076,7369 c 102,607 200,1014 280,1174 94,184 263,218 480,94 404,-230 598,-428 780,-797 38,-76 72,-139 75,-139 3,-1 4,11 2,27 -4,38 -53,727 -53,755 0,36 -354,465 -565,686 -103,107 -257,235 -276,229 -4,-2 -99,-106 -210,-233 -111,-126 -205,-231 -208,-233 -7,-2 84,562 119,733 63,318 192,826 382,1505 335,1204 387,1405 397,1533 6,85 1,105 -18,70 z M 5371,6570 c 4,-151 47.9491,-185.509 51.9491,-539.509 C 5307.4359,5819.5611 4690.3131,5436.6527 5215,6589 c 70,206 98,263 128,259 22,-3 22,-4 28,-278 z"
       inkscape:connector-curvature="0"
       style="fill:#f7f4d3;fill-opacity:1" /></g><g
     inkscape:export-ydpi="88"
     inkscape:export-xdpi="88"
     id="g113055"
     transform="matrix(0.03493693,0,0,0.03493693,380.1992,-22.700039)"
     style="fill:#f7f4d3;fill-opacity:1;stroke:none"><path
       sodipodi:nodetypes="cccccsccsccsccccccccccccccccccccscccscccscssccccccccccccccscccccccsccsccccccccscccccccccccccscccccccccccccccccccsccsccsccccccccccscccccccccccccccccsccccccccccccccsccccccccccccscsccccccccccccccccccccccscscccccccsccsccccsscccccccccsscccccccccccccccccccccccccccsccccccccccccscccccccccc"
       id="path113053"
       d="m 7261,12773 c -18,-35 -84,-234 -236,-713 -337,-1061 -574,-1849 -671,-2224 l -38,-148 -52,111 c -70,148 -104,191 -151,191 -47,0 -163,-56 -363,-175 -91,-54 -166,-98 -167,-99 -3,-2 -89,-496 -86,-496 2,0 28,20 58,44 29,25 85,62 122,84 70,41 285,142 302,142 5,0 22,-15 37,-32 l 27,-33 -6,-150 c -10,-245 -63,-696 -239,-2047 -29,-224 -56,-404 -59,-400 -10,11 -143,485 -213,761 l -62,243 -41,-48 c -22,-27 -47,-63 -56,-80 -45,-87 -162,-467 -367,-1184 -166,-581 -243,-835 -312,-1020 -69,-186 -97,-236 -166,-292 l -57,-48 -100,-445 -100,-444 -6,142 c -4,78 -10,477 -14,887 -8,722 -4,897 23,1054 l 7,38 153,-147 c 111,-107 152,-141 152,-127 0,118 -57,324 -129,469 -57,112 -103,165 -172,195 l -49,20 v 127 c 0,69 5,236 10,371 34,885 33,1133 -2,1208 -11,22 -21,28 -56,30 -39,3 -42,2 -42,-23 0,-27 -59,-1491 -85,-2125 -8,-195 -15,-368 -15,-383 0,-23 -3,-27 -19,-22 -32,10 -92,-102 -321,-600 -74,-159 -137,-294 -140,-298 -7,-8 -39,78 -163,443 l -63,185 -29,-3 c -19,-2 -41,-15 -58,-35 -65,-74 -234,-455 -739,-1667 -10,-22 -13,-15 -25,59 -9,57 -23,103 -44,139 -42,74 -48,138 -55,587 -9,512 9,770 76,1105 47,238 102,399 300,895 61,154 203,469 220,488 9,11 202,-87 385,-196 87,-53 161,-95 163,-93 5,5 -312,528 -382,631 -72,105 -146,187 -209,233 l -45,32 -71,-177 c -96,-245 -118,-303 -241,-663 -180,-524 -216,-615 -270,-676 -37,-43 -37,-65 -5,276 14,146 25,292 25,325 0,54 -53,616 -95,1012 -24,223 -63,501 -80,568 -16,60 -35,85 -66,85 -18,0 -18,12 -39,-780 -15,-544 -36,-843 -63,-899 -7,-14 -23,-28 -36,-31 l -23,-5 -2,-273 c 0,-167 -5,-272 -11,-273 -5,0 -22,46 -38,103 -58,212 -251,548 -404,704 -43,44 -147,124 -160,124 -5,0 -42,-82 -82,-182 C 978,6503 897,6318 574,5627 344,5136 256,4942 215,4835 c -13,-33 -33,-84 -44,-113 -12,-29 -17,-50 -11,-47 21,13 96,135 507,820 533,889 610,1010 732,1145 l 41,45 31,-35 c 126,-142 173,-232 254,-490 112,-355 180,-713 270,-1430 14,-113 28,-214 31,-225 41,-140 -310,577 -556,1138 -24,53 -48,97 -54,97 -7,0 -40,-9 -73,-21 -72,-24 -97,-51 -202,-216 C 1038,5339 904,5088 672,4625 385,4050 150,3546 95,3385 65,3295 9,3108 12,3104 c 2,-1 64,111 137,249 767,1441 861,1609 969,1739 l 56,66 22,-31 c 39,-60 286,-519 354,-661 270,-560 365,-927 440,-1697 36,-368 95,-1099 89,-1091 -4,4 -91,180 -193,392 -396,815 -619,1186 -850,1415 -74,73 -115,103 -216,161 l -125,71 -8,-216 c -9,-240 -2,-585 14,-731 6,-52 21,-153 35,-224 13,-71 24,-134 24,-141 0,-6 -25,-17 -56,-24 -105,-24 -156,-93 -278,-375 -31,-72 -56,-132 -56,-135 0,-3 19,13 43,36 23,22 64,57 91,78 52,39 217,125 238,125 7,0 80,-118 162,-263 218,-381 298,-516 397,-662 128,-188 204,-280 383,-460 686.8572,-26.30517 4274.4037,1404.8303 5313,2635 54,60 86,80 207,129 l 95,39 c 578.979,127.8871 -555.6102,-375.1051 264,159 l -55,132 -112,38 c -94,32 -124,37 -198,38 -49,0 -88,1 -88,3 0,22 249,876 286,982 3,8 36,-70 73,-175 38,-104 71,-197 75,-205 3,-8 4,77 1,190 -6,295 -27,413 -171,963 l -86,329 23,25 c 23,24 28,25 99,19 82,-6 183,-27 416,-83 l 150,-36 147,-256 c 162,-284 255,-466 407,-801 140,-308 294,-606 358,-695 24,-34 8,168 -28,340 -177,855 -310,1261 -495,1520 -62,88 -340,364 -555,552 -249,219 -207,220 -493,-18 -120,-100 -219,-180 -221,-178 -2,2 -27,91 -55,198 -46,172 -87,296 -136,414 -18,44 -21,44 -129,-10 -85,-43 -200,-154 -307,-298 -95,-127 -154,-230 -243,-422 l -71,-152 -164,-186 c -90,-102 -165,-184 -168,-182 -5,5 186,1242 253,1636 102,607 200,1014 280,1174 94,184 263,218 480,94 404,-230 598,-428 780,-797 38,-76 72,-139 75,-139 3,-1 4,11 2,27 -4,38 -53,727 -53,755 0,36 -354,465 -565,686 -103,107 -257,235 -276,229 -4,-2 -99,-106 -210,-233 -111,-126 -205,-231 -208,-233 -7,-2 84,562 119,733 63,318 192,826 382,1505 335,1204 387,1405 397,1533 6,85 1,105 -18,70 z M 5371,6570 c 4,-151 10,-565 14,-919 l 7,-643 -62,42 c -34,23 -63,40 -65,38 -2,-2 -11,-269 -19,-593 -19,-722 -26,-855 -45,-855 -4,0 -12,24 -18,53 -7,28 -23,102 -37,162 -14,61 -42,202 -61,315 -60,351 -94,454 -221,677 l -76,135 17,92 c 58,303 292,1168 410,1515 70,206 98,263 128,259 22,-3 22,-4 28,-278 z m 1280,-32 c 21,-17 51,-52 66,-77 35,-60 144,-373 134,-386 -42,-57 -276,-353 -315,-399 -28,-32 -65,-65 -83,-72 -18,-8 -43,-29 -57,-46 -81,-105 -276,-375 -371,-513 -142,-206 -364,-439 -392,-412 -7,7 30,206 63,340 43,180 91,285 252,551 108,180 135,235 216,441 61,155 71,173 108,200 68,51 159,155 247,283 46,67 85,122 88,122 2,0 22,-14 44,-32 z m 301,-953 c 45,-85 56,-148 34,-199 -8,-20 -77,-102 -153,-184 -183,-195 -275,-298 -307,-347 -15,-21 -40,-45 -56,-52 -17,-6 -44,-33 -61,-60 -49,-77 -264,-519 -306,-630 l -38,-103 h -37 c -50,0 -87,-34 -198,-179 -111,-146 -156,-198 -165,-190 -15,16 -25,149 -25,357 v 222 l 42,68 c 114,183 335,489 433,600 127,145 508,544 649,680 122,118 134,119 188,17 z M 3990,5133 c 0,-5 5,-66 10,-138 6,-71 10,-215 11,-320 0,-259 -22,-399 -66,-419 -19,-8 -20,-19 -21,-215 -1,-113 -5,-224 -11,-246 l -10,-40 -32,100 c -65,205 -133,594 -134,775 0,149 11,195 86,348 62,126 93,162 136,162 17,0 31,-3 31,-7 z m -778,-375 c 8,-7 34,-49 58,-92 42,-79 43,-81 37,-155 -12,-152 -95,-330 -174,-375 -14,-8 -114,37 -138,60 -23,24 -18,74 16,155 16,41 53,139 81,219 68,197 82,218 120,188 z m 1401,-375 c 77,-123 205,-347 238,-417 45,-98 60,-151 194,-697 57,-234 118,-469 135,-522 -40.8007,-641.5581 -849.9294,-942.6039 -720,-502 11,90 26,109 75,99 94,-19 140,-69 205,-223 49,-117 78,-164 104,-169 17,-4 18,2 11,80 -29,357 -51,473 -111,592 -42,85 -150,239 -217,310 l -48,51 -24,-29 c -13,-16 -48,-93 -79,-170 l -55,-141 v 65 c -1,36 4,194 9,350 17,482 49,726 145,1110 30,124 58,231 60,238 2,6 16,12 30,12 18,0 31,-10 48,-37 z M 3500,4178 c 12,-40 53,-172 91,-293 71,-222 87,-301 104,-515 6,-75 5,-83 -8,-70 -31,32 -399,572 -413,607 -29,69 -5,134 93,248 53,63 79,85 110,94 1,1 12,-32 23,-71 z m -716,-411 c 4,-28 13,-178 21,-332 17,-312 31,-422 69,-541 41,-129 77,-303 77,-372 0,-80 -16,-108 -73,-122 -74,-19 -74,-18 -24,-57 108,-84 169,-197 381,-707 195.0928,7.2431 240.6323,-1098.84057 -315,109 -58,123 -129,222 -167,231 -61,16 -151,-60 -234,-196 l -51,-85 6,255 c 23,908 64,1245 203,1660 80,239 96,262 107,157 z"
       inkscape:connector-curvature="0"
       style="fill:#f7f4d3;fill-opacity:1" /></g><g
     inkscape:export-ydpi="88"
     inkscape:export-xdpi="88"
     id="g113059"
     transform="matrix(-0.03493693,0,0,0.03493693,462.73229,-22.700039)"
     style="fill:#f7f4d3;fill-opacity:1;stroke:none"><path
       sodipodi:nodetypes="sccccsccsccsccccccccccccccccccccscccscccscssccccccccccccccscccccccsccsccccccccscccccccccccccscccccccccccccccccccsccsccscccccsccccccccccccccccsccccccccccccccsccccccccccccscsccccccccccccccccscccccscscccccccsccsccccsscccscccccssccccccccccccsccccccc"
       id="path113057"
       d="m 7261,12773 c -18,-35 -84,-234 -236,-713 -337,-1061 -574,-1849 -671,-2224 l -38,-148 -52,111 c -70,148 -104,191 -151,191 -47,0 -163,-56 -363,-175 -91,-54 -166,-98 -167,-99 -3,-2 -89,-496 -86,-496 2,0 28,20 58,44 29,25 85,62 122,84 70,41 285,142 302,142 5,0 22,-15 37,-32 l 27,-33 -6,-150 c -10,-245 -63,-696 -239,-2047 -29,-224 -56,-404 -59,-400 -10,11 -143,485 -213,761 l -62,243 -41,-48 c -22,-27 -47,-63 -56,-80 -45,-87 -162,-467 -367,-1184 -166,-581 -243,-835 -312,-1020 -69,-186 -97,-236 -166,-292 l -57,-48 -100,-445 -100,-444 -6,142 c -4,78 -10,477 -14,887 -8,722 -4,897 23,1054 l 7,38 153,-147 c 111,-107 152,-141 152,-127 0,118 -57,324 -129,469 -57,112 -103,165 -172,195 l -49,20 v 127 c 0,69 5,236 10,371 34,885 33,1133 -2,1208 -11,22 -21,28 -56,30 -39,3 -42,2 -42,-23 0,-27 -59,-1491 -85,-2125 -8,-195 -15,-368 -15,-383 0,-23 -3,-27 -19,-22 -32,10 -92,-102 -321,-600 -74,-159 -137,-294 -140,-298 -7,-8 -39,78 -163,443 l -63,185 -29,-3 c -19,-2 -41,-15 -58,-35 -65,-74 -234,-455 -739,-1667 -10,-22 -13,-15 -25,59 -9,57 -23,103 -44,139 -42,74 -48,138 -55,587 -9,512 9,770 76,1105 47,238 102,399 300,895 61,154 203,469 220,488 9,11 202,-87 385,-196 87,-53 161,-95 163,-93 5,5 -312,528 -382,631 -72,105 -146,187 -209,233 l -45,32 -71,-177 c -96,-245 -118,-303 -241,-663 -180,-524 -216,-615 -270,-676 -37,-43 -37,-65 -5,276 14,146 25,292 25,325 0,54 -53,616 -95,1012 -24,223 -63,501 -80,568 -16,60 -35,85 -66,85 -18,0 -18,12 -39,-780 -15,-544 -36,-843 -63,-899 -7,-14 -23,-28 -36,-31 l -23,-5 -2,-273 c 0,-167 -5,-272 -11,-273 -5,0 -22,46 -38,103 -58,212 -251,548 -404,704 -43,44 -147,124 -160,124 -5,0 -42,-82 -82,-182 C 978,6503 897,6318 574,5627 344,5136 256,4942 215,4835 c -13,-33 -33,-84 -44,-113 -12,-29 -17,-50 -11,-47 21,13 96,135 507,820 533,889 610,1010 732,1145 l 41,45 31,-35 c 126,-142 173,-232 254,-490 112,-355 180,-713 270,-1430 14,-113 28,-214 31,-225 41,-140 -310,577 -556,1138 -24,53 -48,97 -54,97 -7,0 -40,-9 -73,-21 -72,-24 -97,-51 -202,-216 C 1038,5339 904,5088 672,4625 385,4050 150,3546 95,3385 65,3295 9,3108 12,3104 c 2,-1 64,111 137,249 767,1441 861,1609 969,1739 l 56,66 22,-31 c 39,-60 286,-519 354,-661 270,-560 365,-927 440,-1697 36,-368 44.4012,-909.2545 38.4012,-901.2545 -4,4 -40.4012,-9.7455 -142.4012,202.2545 -396,815 -619,1186 -850,1415 -74,73 -115,103 -216,161 l -125,71 -8,-216 c -9,-240 -2,-585 14,-731 6,-52 21,-153 35,-224 13,-71 24,-134 24,-141 0,-6 -25,-17 -56,-24 -105,-24 -156,-93 -278,-375 -31,-72 -56,-132 -56,-135 0,-3 19,13 43,36 23,22 64,57 91,78 52,39 217,125 238,125 7,0 80,-118 162,-263 548.206,-861.99997 5302.0719,2144.4897 6492,3033 335.3313,-613.8159 56.6358,495.6624 -22,773 l -86,329 23,25 c 23,24 28,25 99,19 82,-6 183,-27 416,-83 l 150,-36 147,-256 c 162,-284 77.9042,-99.1587 229.9042,-434.1587 -3.6336,255.9839 170.7093,68.3699 266.7515,239.536 C 8442.6557,6311.3773 8550,5756 8365,6015 c -62,88 -340,364 -555,552 -249,219 -207,220 -493,-18 -120,-100 -219,-180 -221,-178 -2,2 -27,91 -55,198 -46,172 -87,296 -136,414 -18,44 -21,44 -129,-10 -85,-43 -200,-154 -307,-298 -95,-127 -154,-230 -243,-422 l -71,-152 -164,-186 c -90,-102 -165,-184 -168,-182 -5,5 186,1242 253,1636 102,607 200,1014 280,1174 94,184 263,218 480,94 404,-230 598,-428 780,-797 38,-76 72,-139 75,-139 3,-1 4,11 2,27 -4,38 -53,727 -53,755 0,36 -354,465 -565,686 -103,107 -257,235 -276,229 -4,-2 -99,-106 -210,-233 -111,-126 -205,-231 -208,-233 -7,-2 84,562 119,733 63,318 192,826 382,1505 335,1204 387,1405 397,1533 6,85 1,105 -18,70 z M 5371,6570 c 4,-151 10,-565 14,-919 l 7,-643 -62,42 c -34,23 -63,40 -65,38 -2,-2 -11,-269 -19,-593 -19,-722 -26,-855 -45,-855 -4,0 -12,24 -18,53 -7,28 -23,102 -37,162 -14,61 -42,202 -61,315 -60,351 -94,454 -221,677 l -76,135 17,92 c 58,303 292,1168 410,1515 70,206 98,263 128,259 22,-3 22,-4 28,-278 z m 1280,-32 c 21,-17 51,-52 66,-77 35,-60 144,-373 134,-386 -42,-57 -276,-353 -315,-399 -28,-32 -65,-65 -83,-72 -18,-8 -43,-29 -57,-46 -81,-105 -276,-375 -371,-513 -142,-206 -364,-439 -392,-412 -7,7 30,206 63,340 43,180 91,285 252,551 108,180 135,235 216,441 61,155 71,173 108,200 68,51 159,155 247,283 46,67 85,122 88,122 2,0 22,-14 44,-32 z m 301,-953 c 45,-85 56,-148 34,-199 -8,-20 -77,-102 -153,-184 -183,-195 -275,-298 -307,-347 -15,-21 -40,-45 -56,-52 -17,-6 -44,-33 -61,-60 -49,-77 -264,-519 -306,-630 l -38,-103 h -37 c -50,0 -87,-34 -198,-179 -111,-146 -156,-198 -165,-190 -15,16 -25,149 -25,357 v 222 l 42,68 c 114,183 335,489 433,600 127,145 508,544 649,680 122,118 134,119 188,17 z M 3990,5133 c 0,-5 5,-66 10,-138 6,-71 10,-215 11,-320 0,-259 -22,-399 -66,-419 -19,-8 -20,-19 -21,-215 -1,-113 -5,-224 -11,-246 l -10,-40 -32,100 c -65,205 -133,594 -134,775 0,149 11,195 86,348 62,126 93,162 136,162 17,0 31,-3 31,-7 z m -778,-375 c 8,-7 34,-49 58,-92 42,-79 43,-81 37,-155 -12,-152 -95,-330 -174,-375 -14,-8 -114,37 -138,60 -23,24 -18,74 16,155 16,41 53,139 81,219 68,197 82,218 120,188 z m 1401,-375 c 77,-123 205,-347 238,-417 -550.4289,-1607.3829 -647.876,-897.034 -376,204 30,124 58,231 60,238 2,6 16,12 30,12 18,0 31,-10 48,-37 z M 3500,4178 c 12,-40 53,-172 91,-293 71,-222 87,-301 104,-515 6,-75 5,-83 -8,-70 -31,32 -399,572 -413,607 -29,69 -5,134 93,248 53,63 79,85 110,94 1,1 12,-32 23,-71 z m -716,-411 c 4,-28 13,-178 21,-332 17,-312 31,-422 69,-541 41,-129 77,-303 77,-372 -43.5833,-1259.2814 -374.9663,683.2338 -274,1088 80,239 96,262 107,157 z"
       inkscape:connector-curvature="0"
       style="fill:#f7f4d3;fill-opacity:1" /></g><g
     inkscape:export-ydpi="88"
     inkscape:export-xdpi="88"
     style="fill:#3a8383;fill-opacity:1;stroke:none"
     transform="matrix(-0.03493693,0,0,0.03493693,299.53229,-45.100039)"
     id="g112054"><path
       sodipodi:nodetypes="cccccsccsccsccccccccccccccscccccscccccccsccsccccccccsccccccccccccsccccccccccccccccccc"
       style="fill:#f7f4d3;fill-opacity:1"
       inkscape:connector-curvature="0"
       d="m 7261,12773 c -18,-35 -84,-234 -236,-713 -337,-1061 -574,-1849 -671,-2224 l -38,-148 -52,111 c -70,148 -104,191 -151,191 -47,0 -163,-56 -363,-175 -91,-54 -166,-98 -167,-99 -3,-2 -89,-496 -86,-496 2,0 28,20 58,44 29,25 85,62 122,84 70,41 285,142 302,142 5,0 22,-15 37,-32 l 27,-33 -6,-150 c -10,-245 -145.2231,-1417.033 -201.0509,-1749.732 -29,-224 -131.8982,-410.3249 -134.8982,-406.3249 C 5691.0509,7129.9431 5596,7313 5526,7589 l -62,243 -41,-48 c -22,-27 -47,-63 -56,-80 -45,-87 -98.7515,-251.9551 -183.5793,-564.1646 C 5095.8943,6745.5297 4234.4388,6387.6991 4230,6929 c 0,69 5,236 10,371 34,885 33,1133 -2,1208 -11,22 -21,28 -56,30 -39,3 -42,2 -42,-23 0,-27 -59,-1491 -85,-2125 -177.5236,-246.8853 -1617.3101,-595.0205 -1595,-490 47,238 102,399 300,895 61,154 203,469 220,488 9,11 202,-87 385,-196 87,-53 161,-95 163,-93 5,5 -312,528 -382,631 -72,105 -146,187 -209,233 l -45,32 -71,-177 c -96,-245 -118,-303 -241,-663 -180,-524 -216,-615 -270,-676 -37,-43 -37,-65 -5,276 14,146 25,292 25,325 0,54 -53,616 -95,1012 -24,223 -63,501 -80,568 -16,60 -35,85 -66,85 -18,0 -18,12 -39,-780 -15,-544 -36,-843 -63,-899 -7,-14 -23,-28 -36,-31 l -23,-5 -2,-273 c 0,-167 -5,-272 -11,-273 -5,0 -22,46 -38,103 -58,212 -251,548 -404,704 -43,44 -147,124 -160,124 -5,0 -42,-82 -82,-182 C 978,6503 897,6318 574,5627 344,5136 256,4942 215,4835 c -13,-33 -33,-84 -44,-113 -12,-29 -17,-50 -11,-47 21,13 96,135 507,820 533,889 610,1010 732,1145 l 41,45 31,-35 c 126,-142 173,-232 254,-490 112,-355 116.7515,-327.1841 206.7515,-1044.1841 C 2066.3867,4439.4153 1481.0037,5618.04 1470,5643 c -24,53 -48,97 -54,97 -7,0 -40,-9 -73,-21 -72,-24 -97,-51 -202,-216 -103,-164 -237,-415 -469,-878 183.64429,-279.5164 400.1446,164.2994 446,467 l 56,66 22,-31 c 982.9734,-583.4704 3965.2173,1494.2105 4880,2242 102,607 200,1014 280,1174 94,184 263,218 480,94 404,-230 338.6811,33.7141 520.6811,-335.2859 11.941,-133.8746 145.1595,-517.0119 118.8728,257.1841 0,36 -189.5539,389.1018 -400.5539,610.1018 -103,107 -257,235 -276,229 -4,-2 -99,-106 -210,-233 -111,-126 -205,-231 -208,-233 -7,-2 84,562 119,733 63,318 192,826 382,1505 335,1204 387,1405 397,1533 6,85 1,105 -18,70 z"
       id="path112052" /></g></g><path
   transform="scale(1,-1)"
   inkscape:export-ydpi="88.989998"
   inkscape:export-xdpi="88.989998"
   d="M 880.70182,-723.14666 880.12651,-241.85688 463.02967,-1.7102132 46.508145,-242.85334 47.083452,-724.14312 464.18029,-964.28979 Z"
   inkscape:randomized="0"
   inkscape:rounded="0"
   inkscape:flatsided="true"
   sodipodi:arg2="0.0011953439"
   sodipodi:arg1="-0.52240343"
   sodipodi:r2="416.80948"
   sodipodi:r1="481.29013"
   sodipodi:cy="-483"
   sodipodi:cx="463.60498"
   sodipodi:sides="6"
   id="path3417"
   style="opacity:1;fill:none;fill-opacity:1;fill-rule:evenodd;stroke:#4b4b4d;stroke-width:28.79999924;stroke-linecap:round;stroke-linejoin:miter;stroke-miterlimit:4;stroke-dasharray:none;stroke-dashoffset:0;stroke-opacity:1"
   sodipodi:type="star" /></g></svg>